<svg id="Livello_1" data-name="Livello 1" xmlns="http://www.w3.org/2000/svg" viewBox="0 0 140.34 140.34"><defs><style>.cls-1{stroke:#000;stroke-miterlimit:10;stroke-width:1.15px;}.cls-2{fill:#fff;}</style></defs><circle class="cls-1" cx="70.17" cy="70.17" r="69.59"/><path class="cls-2" d="M1244.4,789.55h8a5.75,5.75,0,0,1,4.59,1.86,5.6,5.6,0,0,1,1.29,3.68c0,3.53-2,5.67-6.24,5.67h-5.26v8.1h-2.43Zm2.43,9.24h5.08c2.72,0,4-1.38,4-3.6s-1.43-3.53-3.89-3.53h-5.21Z" transform="translate(-1209.68 -730.19)"/><path class="cls-2" d="M1269.06,806.92h0a5.62,5.62,0,0,1-4.65,2.21c-2.64,0-4.72-1.24-4.72-3.89,0-3.29,2.59-4,6.07-4.51,2-.3,3.35-.49,3.35-2s-1.13-2.46-3.13-2.46c-2.27,0-3.4,1-3.48,3.08h-2.11c.08-2.7,1.86-4.72,5.56-4.72,3,0,5.16,1.1,5.16,4.43v6.64c0,1.13.27,1.76,1.49,1.49h.08v1.59a3,3,0,0,1-1.19.22A2.14,2.14,0,0,1,1269.06,806.92Zm0-3.22v-2.37a10.14,10.14,0,0,1-3.19,1c-2.18.41-3.94.78-3.94,2.84,0,1.86,1.46,2.27,2.89,2.27A3.94,3.94,0,0,0,1269.11,803.7Z" transform="translate(-1209.68 -730.19)"/><path class="cls-2" d="M1283.83,808.86v-1.92h0a4.85,4.85,0,0,1-4.22,2.24c-2.86,0-4.7-1.72-4.7-4.61V794.9h2.19v9.61c0,1.81,1.16,2.87,3.13,2.87a3.62,3.62,0,0,0,3.65-3.89V794.9H1286v14Z" transform="translate(-1209.68 -730.19)"/><path class="cls-2" d="M1288.77,804.32H1291c.3,2.43,1.92,3.11,4,3.11,2.3,0,3.24-1,3.24-2.3,0-1.56-1.08-2-3.64-2.51-2.76-.57-5.22-1.13-5.22-4.18,0-2.33,1.79-3.84,5-3.84,3.45,0,5.16,1.65,5.48,4.38h-2.24c-.22-1.84-1.22-2.65-3.3-2.65s-2.81.89-2.81,2c0,1.51,1.35,1.81,3.76,2.29,2.81.57,5.16,1.19,5.16,4.41,0,2.8-2.3,4.24-5.51,4.24C1291.12,809.27,1289,807.46,1288.77,804.32Z" transform="translate(-1209.68 -730.19)"/><path class="cls-2" d="M1302.73,801.89c0-4,2.65-7.34,6.62-7.34,4.19,0,6.43,3.24,6.43,7.86H1305c.16,2.83,1.7,5,4.51,5a3.62,3.62,0,0,0,3.86-2.86h2.13a5.68,5.68,0,0,1-6,4.7C1305.22,809.24,1302.73,805.94,1302.73,801.89Zm2.3-1.13h8.4c-.14-2.78-1.57-4.49-4.08-4.49S1305.35,798.22,1305,800.76Z" transform="translate(-1209.68 -730.19)"/></svg>