<svg id="Livello_1" data-name="Livello 1" xmlns="http://www.w3.org/2000/svg" viewBox="0 0 140.34 140.34"><defs><style>.cls-1{stroke:#000;stroke-miterlimit:10;stroke-width:1.15px;}.cls-2{fill:#fff;}</style></defs><circle class="cls-1" cx="70.17" cy="70.17" r="69.59"/><path class="cls-2" d="M1256.15,789.55h8a5.76,5.76,0,0,1,4.6,1.86,5.6,5.6,0,0,1,1.29,3.68c0,3.53-2,5.67-6.24,5.67h-5.26v8.1h-2.43Zm2.43,9.24h5.07c2.73,0,4-1.38,4-3.6s-1.43-3.53-3.89-3.53h-5.21Z" transform="translate(-1209.68 -730.19)"/><path class="cls-2" d="M1272.86,789.55h2.19v19.31h-2.19Z" transform="translate(-1209.68 -730.19)"/><path class="cls-2" d="M1287.34,806.92h0a5.58,5.58,0,0,1-4.64,2.21c-2.65,0-4.73-1.24-4.73-3.89,0-3.29,2.59-4,6.08-4.51,2-.3,3.35-.49,3.35-2s-1.14-2.46-3.13-2.46c-2.27,0-3.41,1-3.49,3.08h-2.11c.09-2.7,1.87-4.72,5.57-4.72,3,0,5.16,1.1,5.16,4.43v6.64c0,1.13.27,1.76,1.48,1.49h.08v1.59a2.93,2.93,0,0,1-1.18.22A2.15,2.15,0,0,1,1287.34,806.92Zm.06-3.22v-2.37a10.14,10.14,0,0,1-3.19,1c-2.19.41-4,.78-4,2.84,0,1.86,1.46,2.27,2.9,2.27A3.94,3.94,0,0,0,1287.4,803.7Z" transform="translate(-1209.68 -730.19)"/><path class="cls-2" d="M1292.77,813.18v-1.94h.11a3.06,3.06,0,0,0,1.48.29c.92,0,1.54-.35,2.08-1.7l.54-1.37-5.45-13.56h2.37l3.3,8.69c.43,1.16.94,2.73.94,2.73h.06s.48-1.57.92-2.73l3.18-8.69h2.33l-6,15.1c-1.14,2.88-2.22,3.48-3.92,3.48A4.84,4.84,0,0,1,1292.77,813.18Z" transform="translate(-1209.68 -730.19)"/></svg>