<svg id="Livello_1" data-name="Livello 1" xmlns="http://www.w3.org/2000/svg" viewBox="0 0 51.25 51.25"><defs><style>.cls-1{stroke:#000;stroke-miterlimit:10;stroke-width:0.42px;}.cls-2{fill:#fff;}</style></defs><circle class="cls-1" cx="25.63" cy="25.63" r="25.42"/><path class="cls-2" d="M1271.41,796.16h2.77a2.11,2.11,0,0,1,1.66.61,1.87,1.87,0,0,1,.49,1.36c0,1.3-.76,2-2.23,2h-2v3.07h-.66Zm2.64,3.42c1.14,0,1.61-.54,1.61-1.43s-.54-1.41-1.56-1.41h-2v2.84Z" transform="translate(-1254.22 -774.73)"/><path class="cls-2" d="M1277.35,796.16h.61v7.05h-.61Z" transform="translate(-1254.22 -774.73)"/><path class="cls-2" d="M1279,801.91c0-1.21.94-1.46,2.1-1.6,1-.12,1.37-.18,1.37-.69v-.1c0-.69-.44-1-1.22-1s-1.39.37-1.43,1.13h-.61c.07-1,.72-1.63,2-1.63,1.11,0,1.8.47,1.8,1.58v2.77c0,.31.12.44.34.45a1,1,0,0,0,.22,0h0v.44a.94.94,0,0,1-.41.08.68.68,0,0,1-.75-.72v-.11h0a2.05,2.05,0,0,1-1.79.88C1279.73,803.33,1279,802.86,1279,801.91Zm3.48-.54v-.92a4,4,0,0,1-1.32.33c-.86.12-1.52.25-1.52,1.13,0,.71.53.93,1.13.93A1.56,1.56,0,0,0,1282.49,801.37Z" transform="translate(-1254.22 -774.73)"/><path class="cls-2" d="M1284.27,804.82v-.54h0a1.39,1.39,0,0,0,.47.07c.38,0,.66-.17.85-.69l.16-.46-2-5.09h.65l1.22,3.3c.18.47.41,1.16.41,1.16h0s.22-.69.38-1.16l1.18-3.3h.63l-2.1,5.63c-.35.92-.75,1.16-1.41,1.16A1.6,1.6,0,0,1,1284.27,804.82Z" transform="translate(-1254.22 -774.73)"/></svg>