<svg id="Livello_1" data-name="Livello 1" xmlns="http://www.w3.org/2000/svg" viewBox="0 0 129.28 129.28"><defs><style>.cls-1{stroke:#000;stroke-miterlimit:10;stroke-width:1.06px;}.cls-2{fill:#fff;}</style></defs><circle class="cls-1" cx="64.64" cy="64.64" r="64.11"/><path class="cls-2" d="M1257.61,789.76H1265a5.29,5.29,0,0,1,4.23,1.72,5.11,5.11,0,0,1,1.19,3.38c0,3.26-1.86,5.23-5.74,5.23h-4.86v7.46h-2.24Zm2.24,8.51h4.68c2.51,0,3.71-1.27,3.71-3.31s-1.32-3.26-3.58-3.26h-4.81Z" transform="translate(-1215.2 -735.72)"/><path class="cls-2" d="M1273,789.76h2v17.79h-2Z" transform="translate(-1215.2 -735.72)"/><path class="cls-2" d="M1286.43,805.76h0a5.15,5.15,0,0,1-4.28,2c-2.44,0-4.35-1.14-4.35-3.58,0-3,2.38-3.66,5.6-4.16,1.81-.27,3.08-.44,3.08-1.84s-1-2.26-2.89-2.26c-2.09,0-3.13.89-3.21,2.83h-1.94c.08-2.48,1.72-4.35,5.13-4.35,2.74,0,4.75,1,4.75,4.08v6.12c0,1.05.25,1.62,1.37,1.37h.08v1.47a2.79,2.79,0,0,1-1.1.2A2,2,0,0,1,1286.43,805.76Zm0-3v-2.19a9.49,9.49,0,0,1-2.94.95c-2,.37-3.63.72-3.63,2.61,0,1.72,1.34,2.09,2.66,2.09A3.63,3.63,0,0,0,1286.48,802.8Z" transform="translate(-1215.2 -735.72)"/><path class="cls-2" d="M1291.42,811.54v-1.79h.1a3,3,0,0,0,1.37.27c.85,0,1.42-.32,1.92-1.57l.5-1.27-5-12.49h2.19l3,8c.39,1.07.87,2.51.87,2.51h0s.45-1.44.84-2.51l2.94-8h2.14l-5.5,13.91c-1,2.66-2,3.21-3.61,3.21A4.54,4.54,0,0,1,1291.42,811.54Z" transform="translate(-1215.2 -735.72)"/></svg>