<svg id="Livello_1" data-name="Livello 1" xmlns="http://www.w3.org/2000/svg" viewBox="0 0 140.34 140.34"><defs><style>.cls-1{stroke:#000;stroke-miterlimit:10;stroke-width:1.15px;}.cls-2{fill:#fff;}</style></defs><circle class="cls-1" cx="70.17" cy="70.17" r="69.59"/><path class="cls-2" d="M1255.71,788.85h8a5.74,5.74,0,0,1,4.59,1.87,5.56,5.56,0,0,1,1.3,3.67c0,3.54-2,5.68-6.24,5.68h-5.27v8.1h-2.43Zm2.43,9.24h5.08c2.73,0,4-1.37,4-3.59s-1.44-3.54-3.89-3.54h-5.22Z" transform="translate(-1209.68 -730.19)"/><path class="cls-2" d="M1272.43,788.85h2.19v19.32h-2.19Z" transform="translate(-1209.68 -730.19)"/><path class="cls-2" d="M1287,806.22h0a5.62,5.62,0,0,1-4.65,2.22c-2.64,0-4.72-1.24-4.72-3.89,0-3.3,2.59-4,6.08-4.51,2-.3,3.35-.49,3.35-2s-1.14-2.46-3.14-2.46c-2.27,0-3.4,1-3.48,3.08h-2.11c.08-2.7,1.86-4.73,5.56-4.73,3,0,5.17,1.11,5.17,4.43V805c0,1.13.26,1.76,1.48,1.48h.08v1.6a3,3,0,0,1-1.19.21A2.14,2.14,0,0,1,1287,806.22Zm0-3.21v-2.38a10.13,10.13,0,0,1-3.19,1c-2.18.41-3.94.78-3.94,2.84,0,1.86,1.46,2.27,2.89,2.27A3.94,3.94,0,0,0,1287,803Z" transform="translate(-1209.68 -730.19)"/><path class="cls-2" d="M1292.41,812.49v-1.94h.11a3.14,3.14,0,0,0,1.49.29c.92,0,1.54-.35,2.08-1.7l.54-1.38-5.46-13.56h2.38l3.3,8.7c.43,1.16.94,2.73.94,2.73h.06s.48-1.57.91-2.73l3.19-8.7h2.32l-6,15.1c-1.13,2.89-2.21,3.49-3.91,3.49A4.75,4.75,0,0,1,1292.41,812.49Z" transform="translate(-1209.68 -730.19)"/></svg>