<svg id="Livello_1" data-name="Livello 1" xmlns="http://www.w3.org/2000/svg" viewBox="0 0 129.28 129.28"><defs><style>.cls-1{stroke:#000;stroke-miterlimit:10;stroke-width:1.06px;}.cls-2{fill:#fff;}</style></defs><circle class="cls-1" cx="64.64" cy="64.64" r="64.11"/><path class="cls-2" d="M1258.57,789.76h7a5.38,5.38,0,0,1,4.18,1.54,4.8,4.8,0,0,1,1.25,3.44c0,3.28-1.92,5.07-5.65,5.07h-5.1v7.74h-1.67Zm6.64,8.64c2.89,0,4.09-1.37,4.09-3.61s-1.37-3.56-3.94-3.56h-5.12v7.17Z" transform="translate(-1215.2 -735.72)"/><path class="cls-2" d="M1273.55,789.76h1.54v17.79h-1.54Z" transform="translate(-1215.2 -735.72)"/><path class="cls-2" d="M1277.73,804.27c0-3.06,2.39-3.68,5.3-4,2.54-.3,3.46-.45,3.46-1.74v-.25c0-1.75-1.1-2.59-3.09-2.59-2.29,0-3.48.94-3.61,2.86h-1.51c.17-2.49,1.81-4.11,5.12-4.11,2.81,0,4.56,1.17,4.56,4v7c0,.77.29,1.09.84,1.12a2.82,2.82,0,0,0,.58-.1h.07v1.12a2.48,2.48,0,0,1-1,.2,1.72,1.72,0,0,1-1.89-1.82v-.27h-.07a5.18,5.18,0,0,1-4.51,2.21C1279.54,807.85,1277.73,806.66,1277.73,804.27Zm8.78-1.37v-2.31a10.79,10.79,0,0,1-3.33.84c-2.17.3-3.83.62-3.83,2.84,0,1.79,1.34,2.34,2.86,2.34C1285,806.61,1286.51,804.67,1286.51,802.9Z" transform="translate(-1215.2 -735.72)"/><path class="cls-2" d="M1291,811.61v-1.37h.08a3.26,3.26,0,0,0,1.17.18c1,0,1.67-.43,2.14-1.75l.42-1.14-5-12.84h1.64l3.09,8.31c.45,1.2,1,2.94,1,2.94h.05s.55-1.74,1-2.94l3-8.31h1.59l-5.3,14.21c-.87,2.31-1.89,2.91-3.56,2.91A3.86,3.86,0,0,1,1291,811.61Z" transform="translate(-1215.2 -735.72)"/></svg>