<?xml version="1.0" encoding="utf-8"?>
<!-- Generator: Adobe Illustrator 26.0.2, SVG Export Plug-In . SVG Version: 6.00 Build 0)  -->
<svg version="1.1" id="Layer_1" xmlns="http://www.w3.org/2000/svg" xmlns:xlink="http://www.w3.org/1999/xlink" x="0px" y="0px"
	 viewBox="0 0 1664 810" style="enable-background:new 0 0 1664 810;" xml:space="preserve">
<style type="text/css">
	.st0{fill:none;}
	.st1{opacity:0.35;enable-background:new    ;}
	.st2{fill:#FFFFFF;}
	.st3{enable-background:new    ;}
	.st4{stroke:#000000;stroke-width:2;stroke-miterlimit:10;}
</style>
<rect class="st0" width="1664" height="810"/>
<rect x="38.8" y="93.1" class="st1" width="441.2" height="311.2"/>
<polygon class="st1" points="1397.8,70.6 1173.5,70.6 1141.1,105.5 1173.5,138.2 1397.8,138.2 "/>
<polygon class="st1" points="1397.8,160.9 1173.5,160.9 1141.1,195.8 1173.5,228.5 1397.8,228.5 "/>
<polygon class="st1" points="1173.3,251.6 1397.6,251.6 1430.1,284.4 1397.6,319.2 1173.3,319.2 "/>
<polygon class="st1" points="940.1,304.1 722.6,304.1 689.4,403.8 967.4,403.8 "/>
<path class="st2" d="M197.2,213.8h124.4c19.3,0,35,15.7,35,35l0,0c0,19.3-15.7,35-35,35H197.2c-19.3,0-35-15.7-35-35l0,0
	C162.2,229.4,177.9,213.8,197.2,213.8z"/>
<g class="st3">
	<path d="M234.7,239.2h12.5v2H237v5.6h9.3v1.9H237v6.2h10.6v2.1h-12.8V239.2z"/>
	<path d="M251.8,245.8L251.8,245.8c1-1.2,2.3-2,4.1-2c2.7,0,4.3,1.5,4.3,4.1v9h-2v-8.8c0-1.7-1.1-2.6-2.9-2.6c-2,0-3.5,1.4-3.5,3.5
		v7.9h-2v-12.8h2V245.8z"/>
	<path d="M263,239.2h2v17.7h-2V239.2z"/>
	<path d="M275.6,255.1L275.6,255.1c-0.8,1-2.1,2-4.3,2c-2.4,0-4.3-1.1-4.3-3.6c0-3,2.4-3.6,5.6-4.1c1.8-0.3,3.1-0.4,3.1-1.8
		c0-1.4-1-2.3-2.9-2.3c-2.1,0-3.1,0.9-3.2,2.8h-1.9c0.1-2.5,1.7-4.3,5.1-4.3c2.7,0,4.7,1,4.7,4.1v6.1c0,1,0.2,1.6,1.4,1.4h0.1v1.5
		c-0.2,0.1-0.6,0.2-1.1,0.2C276.5,257,275.8,256.4,275.6,255.1z M275.7,252.2V250c-0.7,0.4-1.8,0.7-2.9,0.9c-2,0.4-3.6,0.7-3.6,2.6
		c0,1.7,1.3,2.1,2.6,2.1C274.5,255.6,275.7,253.7,275.7,252.2z"/>
</g>
<g class="st3">
	<path d="M282.4,246.2L282.4,246.2c0.8-1.2,2.2-2.3,3.9-2.3c0.4,0,0.6,0,0.8,0.1v1.9H287c-0.3-0.1-0.5-0.1-0.9-0.1
		c-2,0-3.7,1.5-3.7,3.9v7.1h-2v-12.8h2V246.2z"/>
</g>
<g class="st3">
	<path d="M288.1,257.6h1.9c0.2,1.4,1.5,2,3.5,2c2.4,0,3.7-1.1,3.7-3.3v-1.8h0c-0.9,1.2-2,2-3.8,2c-3.3,0-5.6-2.6-5.6-6.3
		c0-4,2.5-6.3,5.5-6.3c1.9,0,3,0.7,3.9,1.9h0v-1.6h2v12.1c0,3.4-2.2,5-5.6,5C290.2,261.2,288.3,259.8,288.1,257.6z M297.3,250
		c0-2.8-1.2-4.5-3.9-4.5c-2.4,0-3.6,1.9-3.6,4.7c0,2.8,1.3,4.6,3.6,4.6C296.3,254.8,297.3,252.7,297.3,250z"/>
	<path d="M301.1,250.5c0-3.7,2.4-6.7,6.1-6.7c3.8,0,5.9,3,5.9,7.2h-9.9c0.1,2.6,1.6,4.6,4.1,4.6c1.9,0,3.1-0.9,3.5-2.6h2
		c-0.6,2.7-2.6,4.3-5.5,4.3C303.4,257.2,301.1,254.2,301.1,250.5z M303.2,249.5h7.7c-0.1-2.5-1.4-4.1-3.7-4.1
		C304.8,245.4,303.5,247.1,303.2,249.5z"/>
</g>
<line class="st4" x1="207.9" y1="234.2" x2="207.9" y2="259.1"/>
<line class="st4" x1="220.3" y1="246.7" x2="195.4" y2="246.7"/>
</svg>
