<?xml version="1.0" encoding="utf-8"?>
<!-- Generator: Adobe Illustrator 26.0.2, SVG Export Plug-In . SVG Version: 6.00 Build 0)  -->
<svg version="1.1" id="Layer_1" xmlns="http://www.w3.org/2000/svg" xmlns:xlink="http://www.w3.org/1999/xlink" x="0px" y="0px"
	 viewBox="0 0 1664 822.3" style="enable-background:new 0 0 1664 822.3;" xml:space="preserve">
<style type="text/css">
	.st0{fill:none;}
	.st1{opacity:0.35;enable-background:new    ;}
	.st2{fill:#FFFFFF;}
	.st3{enable-background:new    ;}
	.st4{stroke:#000000;stroke-width:2;stroke-miterlimit:10;}
</style>
<rect class="st0" width="1664" height="822.3"/>
<rect x="222.3" y="2.2" class="st1" width="1213.5" height="819.9"/>
<path class="st2" d="M766.8,377.2h124.4c19.3,0,35,15.7,35,35l0,0c0,19.3-15.7,35-35,35H766.8c-19.3,0-35-15.7-35-35l0,0
	C731.8,392.9,747.5,377.2,766.8,377.2z"/>
<g class="st3">
	<path d="M804.3,402.6h12.5v2h-10.3v5.6h9.3v1.9h-9.3v6.2h10.6v2.1h-12.8V402.6z"/>
	<path d="M821.9,409.2L821.9,409.2c1-1.2,2.3-2,4.1-2c2.7,0,4.3,1.5,4.3,4.1v9h-2v-8.8c0-1.7-1.1-2.6-2.9-2.6c-2,0-3.5,1.4-3.5,3.5
		v7.9h-2v-12.8h2L821.9,409.2L821.9,409.2z"/>
	<path d="M833.6,402.6h2v17.7h-2V402.6z"/>
	<path d="M846.7,418.5L846.7,418.5c-0.8,1-2.1,2-4.3,2c-2.4,0-4.3-1.1-4.3-3.6c0-3,2.4-3.6,5.6-4.1c1.8-0.3,3.1-0.4,3.1-1.8
		s-1-2.3-2.9-2.3c-2.1,0-3.1,0.9-3.2,2.8h-1.9c0.1-2.5,1.7-4.3,5.1-4.3c2.7,0,4.7,1,4.7,4.1v6.1c0,1,0.2,1.6,1.4,1.4h0.1v1.5
		c-0.2,0.1-0.6,0.2-1.1,0.2C847.6,420.5,846.9,419.9,846.7,418.5z M846.8,415.6v-2.2c-0.7,0.4-1.8,0.7-2.9,0.9
		c-2,0.4-3.6,0.7-3.6,2.6c0,1.7,1.3,2.1,2.6,2.1C845.5,419,846.8,417.1,846.8,415.6z"/>
</g>
<g class="st3">
	<path d="M853.7,409.7L853.7,409.7c0.7-1.2,1.9-2.3,3.4-2.3c0.3,0,0.5,0,0.7,0.1v1.9h-0.1c-0.3-0.1-0.4-0.1-0.8-0.1
		c-1.7,0-3.2,1.5-3.2,3.9v7.1H852v-12.8h1.7V409.7z"/>
</g>
<g class="st3">
	<path d="M858.7,421h1.9c0.2,1.4,1.5,2,3.5,2c2.4,0,3.7-1.1,3.7-3.3v-1.8l0,0c-0.9,1.2-2,2-3.8,2c-3.3,0-5.6-2.6-5.6-6.3
		c0-4,2.5-6.3,5.5-6.3c1.9,0,3,0.7,3.9,1.9l0,0v-1.6h2v12.1c0,3.4-2.2,5-5.6,5C860.8,424.6,858.9,423.3,858.7,421z M867.9,413.4
		c0-2.8-1.2-4.5-3.9-4.5c-2.4,0-3.6,1.9-3.6,4.7c0,2.8,1.3,4.6,3.6,4.6C866.9,418.2,867.9,416.1,867.9,413.4z"/>
	<path d="M872.2,413.9c0-3.7,2.4-6.7,6.1-6.7c3.8,0,5.9,3,5.9,7.2h-9.9c0.1,2.6,1.6,4.6,4.1,4.6c1.9,0,3.1-0.9,3.5-2.6h2
		c-0.6,2.7-2.6,4.3-5.5,4.3C874.5,420.7,872.2,417.7,872.2,413.9z M874.3,412.9h7.7c-0.1-2.5-1.4-4.1-3.7-4.1
		C875.9,408.8,874.6,410.6,874.3,412.9z"/>
</g>
<g>
	<line class="st4" x1="777.5" y1="398.2" x2="777.5" y2="422.7"/>
	<line class="st4" x1="789.7" y1="410.4" x2="765.2" y2="410.4"/>
</g>
</svg>
