<svg id="Layer_1" data-name="Layer 1" xmlns="http://www.w3.org/2000/svg" viewBox="0 0 607.47 607.47"><defs><style>.cls-1,.cls-2,.cls-3{stroke:#fff;}.cls-1,.cls-2{stroke-miterlimit:10;}.cls-1{stroke-width:6px;}.cls-2,.cls-3{fill:none;stroke-width:7.2px;}.cls-3{stroke-linecap:round;stroke-linejoin:round;}</style></defs><title>cartella</title><circle class="cls-1" cx="303.73" cy="303.73" r="300.73"/><path class="cls-2" d="M1286.7,721.25v-46a4.63,4.63,0,0,1,4.63-4.63h220a4.63,4.63,0,0,1,4.63,4.63v46" transform="translate(-1097.62 -408)"/><path class="cls-3" d="M1509.8,806.85H1292.9a6.21,6.21,0,0,1-6.2-6.2V629.91a13.25,13.25,0,0,1,2.25-7.39h0a13.27,13.27,0,0,1,11-5.9h58.56a6.65,6.65,0,0,1,5.38,2.74l12.4,17H1509.8a6.21,6.21,0,0,1,6.2,6.2v158A6.21,6.21,0,0,1,1509.8,806.85Z" transform="translate(-1097.62 -408)"/></svg>