<?xml version="1.0" encoding="utf-8"?>
<!-- Generator: Adobe Illustrator 26.0.2, SVG Export Plug-In . SVG Version: 6.00 Build 0)  -->
<svg version="1.1" id="Layer_1" xmlns="http://www.w3.org/2000/svg" xmlns:xlink="http://www.w3.org/1999/xlink" x="0px" y="0px"
	 viewBox="0 0 1163.3 244.4" style="enable-background:new 0 0 1163.3 244.4;" xml:space="preserve">
<style type="text/css">
	.st0{fill:#FFFFFF;}
	.st1{opacity:0.95;fill:#3B6CE4;enable-background:new    ;}
	.st2{opacity:0.95;fill:#F24E14;enable-background:new    ;}
	.st3{opacity:0.95;fill:#2B2D35;enable-background:new    ;}
	.st4{fill:#F4EDE7;}
	.st5{enable-background:new    ;}
	.st6{fill:none;stroke:#FFFFFF;stroke-width:0.15;stroke-miterlimit:10;}
	.st7{fill:#2B2D35;}
</style>
<rect class="st0" width="1163.3" height="244.4"/>
<circle class="st1" cx="134.2" cy="118.6" r="118.6"/>
<circle class="st2" cx="436.5" cy="118.6" r="118.6"/>
<circle class="st3" cx="738.7" cy="118.6" r="118.6"/>
<circle class="st4" cx="1044.6" cy="118.6" r="118.6"/>
<g class="st5">
	<path class="st0" d="M70.5,86.5v6.7h-0.1c-0.4-3.2-1.9-5.3-4.3-5.3h-0.6v13.8c0,1.7,0.6,2.3,2.5,2.5v0.1h-9v-0.1
		c1.9-0.2,2.5-0.9,2.5-2.5V87.9h-0.6c-2.4,0-3.9,2.1-4.3,5.3h-0.1v-6.7h0.1c0.4,0.5,1.2,0.6,2.1,0.6h9.8c0.9,0,1.6-0.1,2.1-0.6H70.5
		z"/>
</g>
<g class="st5">
	<path class="st0" d="M84.7,101.7c-0.4,2-1.7,3.1-3.5,3.1c-1.5,0-2.4-0.9-2.6-2.2l0-0.2c-0.3,1.2-1.6,2.4-3.4,2.4
		c-2.1,0-3.3-1.5-3.3-3.1c0-2.2,1.8-3.6,4.6-4.2l2-0.4v-0.5c0-1.9-0.7-3.2-2.8-3.2c-1.6,0-2.7,0.8-3.3,2.7l-0.2,0
		c0.4-2.8,2.3-4.6,5.2-4.6c3.3,0,4.7,2.1,4.7,5.3v5c0,0.9,0.4,1.3,1,1.3c0.5,0,1-0.3,1.3-1.2L84.7,101.7z M78.6,102v-4.3l-1,0.2
		c-1.9,0.4-2.3,1.6-2.3,2.8c0,1.3,0.6,2.2,1.8,2.2C77.8,102.9,78.3,102.6,78.6,102z"/>
	<path class="st0" d="M99.6,104.3v0.1h-5.1v-2.1c-0.5,1.3-1.7,2.5-3.5,2.5c-2.7,0-4.6-2.5-4.6-6.2c0-4.3,2.6-7.2,6-7.2
		c0.9,0,1.6,0.2,2.1,0.6v-2.3c0-1-0.5-1.6-2-1.4v-0.1l5.7-1.7v16.1C98.1,103.7,98.6,104,99.6,104.3z M94.5,101.9V93
		C94.2,92.4,93.7,92,93,92c-1.7,0-2.7,2.2-2.7,5.5c0,3.4,1.2,5.3,2.6,5.3C93.7,102.8,94.2,102.5,94.5,101.9z"/>
</g>
<g class="st5">
	<path class="st0" d="M101.4,109.2c1-0.2,1.5-0.6,1.5-1.6V94.8c0-1.3-0.3-1.7-1.5-1.8v-0.1l5.1-1.4v2.1c0.6-1.4,2-2.2,3.5-2.2
		c2.6,0,4.6,2.4,4.6,6.1c0,4.4-2.5,7.3-6,7.3c-0.8,0-1.6-0.3-2.1-0.6v3.4c0,1.1,0.6,1.5,1.9,1.6v0.1h-7.1V109.2z M110.7,98.6
		c0-3.4-1-5.5-2.7-5.5c-0.7,0-1.2,0.3-1.4,0.8v9.5c0.2,0.3,0.7,0.8,1.5,0.8C109.6,104.1,110.7,102,110.7,98.6z"/>
</g>
<g class="st5">
	<path class="st0" d="M117.1,98.1c0-3.9,2.6-6.7,6.4-6.7s6.4,2.8,6.4,6.7s-2.6,6.7-6.4,6.7S117.1,102,117.1,98.1z M126.1,98.1
		c0-4.1-0.8-5.9-2.5-5.9c-1.8,0-2.5,1.8-2.5,5.9c0,4.1,0.7,5.9,2.5,5.9C125.3,104,126.1,102.2,126.1,98.1z"/>
</g>
<g class="st5">
	<path class="st0" d="M138.4,104.3v0.1h-6.6v-0.1c1-0.2,1.5-0.6,1.5-1.6V89.8c0-1.1-0.4-1.6-1.5-1.7v-0.1l5.1-1.5v16.2
		C136.9,103.6,137.4,104,138.4,104.3z"/>
	<path class="st0" d="M150.8,99.9c-0.6,3.6-2.9,4.8-5,4.8c-2.9,0-5.5-2.2-5.5-6.5c0-4,2.2-7,5.6-7c2.4,0,4.9,1.5,4.8,5.6h-7.6
		c0.2,3.2,1.9,4.9,4.3,4.9c1.3,0,2.5-0.4,3.2-1.9L150.8,99.9z M143.2,96v0.3h4.3c0-3.2-0.8-4.3-2-4.3C144,92,143.2,93.6,143.2,96z"
		/>
	<path class="st0" d="M174.1,99.8c0,3-2.4,4.6-6.9,4.6H159v-0.1c1.2-0.3,1.7-0.8,1.7-2.5V89.7c0-1.6-0.5-2.1-1.7-2.4v-0.1h8.1
		c4,0,6.1,1.4,6.1,4.1c0,2.5-1.9,4-5.1,4.2v0.1C171.7,95.5,174.1,97.1,174.1,99.8z M164.8,87.8v7.6h1c2.3,0,3.2-1.5,3.2-3.9
		c0-2.4-1.1-3.7-3.2-3.7H164.8z M169.6,99.9c0-2.7-1.2-4-3.6-4h-1.3v7.9h1.5C168.3,103.8,169.6,102.3,169.6,99.9z"/>
	<path class="st0" d="M182.6,104.3v0.1H176v-0.1c1-0.2,1.5-0.6,1.5-1.6V89.8c0-1.1-0.4-1.6-1.5-1.7v-0.1l5.1-1.5v16.2
		C181.1,103.6,181.6,104,182.6,104.3z"/>
	<path class="st0" d="M197.7,104.3v0.1h-5.1v-2.2c-0.5,1.4-1.8,2.6-3.5,2.6c-2.1,0-3.6-1.2-3.6-4v-6.5c0-1.4-0.3-1.7-1.5-1.8v-0.1
		l5.1-0.9v9.3c0,1.4,0.7,2.2,1.8,2.2c0.7,0,1.3-0.4,1.6-1v-7.6c0-1.3-0.3-1.8-1.2-1.8v-0.1l4.9-0.8v11
		C196.2,103.7,196.8,104,197.7,104.3z"/>
	<path class="st0" d="M210.1,99.9c-0.6,3.6-2.9,4.8-5,4.8c-2.9,0-5.5-2.2-5.5-6.5c0-4,2.2-7,5.6-7c2.4,0,4.9,1.5,4.8,5.6h-7.6
		c0.2,3.2,1.9,4.9,4.3,4.9c1.3,0,2.5-0.4,3.2-1.9L210.1,99.9z M202.5,96v0.3h4.3c0-3.2-0.8-4.3-2-4.3C203.3,92,202.5,93.6,202.5,96z
		"/>
</g>
<g class="st5">
	<path class="st0" d="M57.2,120.8h6.3c2.5,0,4,1.5,4,3.8c0,1.7-0.7,2.9-2.4,3.4v0.1c1.5,0.5,1.9,1.6,2,3.7c0.1,2.3,0.4,2.8,0.6,3
		v0.1h-1.4c-0.3-0.2-0.4-0.8-0.5-3.2c-0.1-2.4-1-3.1-3-3.1h-4.3v6.3h-1.3V120.8z M63.1,127.5c2.1,0,3.1-1,3.1-2.8s-0.8-2.8-2.9-2.8
		h-4.7v5.5H63.1z"/>
</g>
<g class="st5">
	<path class="st0" d="M69.7,127.9c0-4.2,2.4-7.3,6.7-7.3c2.9,0,5.1,1.5,5.6,4.4h-1.4c-0.4-2.1-2.1-3.2-4.2-3.2
		c-3.6,0-5.3,2.8-5.3,6.2c0,3.5,1.8,6.2,5.1,6.2c3.3,0,4.7-2.2,4.7-4.7v-0.5h-4.5v-1.2h5.8v7.2h-0.9l-0.3-2.2h-0.1
		c-0.7,1.1-2.1,2.5-4.7,2.5C72.1,135.2,69.7,132.1,69.7,127.9z"/>
</g>
<g class="st5">
	<path class="st0" d="M85.2,120.8h5.9c1.3,0,2.3,0.4,3,1c0.7,0.6,1,1.5,1,2.5c0,1.6-0.7,2.6-2.2,3.1v0.1c1.6,0.5,2.7,1.6,2.7,3.5
		c0,1.1-0.4,2.1-1,2.8c-0.7,0.7-1.9,1.2-3.3,1.2h-6.1V120.8z M91.1,127c1.7,0,2.7-1,2.7-2.5c0-1.6-1-2.5-2.7-2.5h-4.6v5H91.1z
		 M91.2,133.7c1.1,0,1.9-0.3,2.4-0.8c0.5-0.5,0.7-1.1,0.7-1.9c0-1.8-1.2-2.8-3.1-2.8h-4.7v5.6H91.2z"/>
</g>
<g class="st5">
	<path class="st0" d="M97.9,127.1h1.5v1.7h-1.5V127.1z M97.9,133.2h1.5v1.7h-1.5V133.2z"/>
</g>
<g class="st5">
	<path class="st0" d="M105.2,131.3h1.3c0.2,1.7,1.2,2.8,3.2,2.8c2,0,3.2-1.4,3.2-3.5c0-2.1-1.3-3.4-3.1-3.4c-1.5,0-2.4,0.6-3,1.4
		h-1.2l1.2-7.2h6.7v1.1h-5.8l-0.7,4.6h0c0.7-0.7,1.6-1.1,3-1.1c2.2,0,4.2,1.6,4.2,4.5c0,2.7-1.8,4.6-4.5,4.6
		C107.1,135.2,105.3,133.6,105.2,131.3z"/>
</g>
<g class="st5">
	<path class="st0" d="M116.2,131.6h1.3c0.1,1.5,1.2,2.5,2.8,2.5c1,0,1.8-0.3,2.3-0.9c1-1,1.4-2.8,1.4-5.2h0
		c-0.8,1.3-2.1,2.1-3.7,2.1c-2.5,0-4.3-1.9-4.3-4.4c0-2.6,1.8-4.6,4.4-4.6c1.3,0,2.2,0.4,3,1.1c1.4,1.1,1.8,3.2,1.8,6.1
		c0,2.5-0.5,4.5-1.8,5.8c-0.8,0.8-1.9,1.2-3.2,1.2C118,135.2,116.3,133.8,116.2,131.6z M123.7,125.6c0-2.1-1.4-3.5-3.3-3.5
		c-1.9,0-3.2,1.5-3.2,3.5c0,2,1.3,3.4,3.2,3.4C122.3,129,123.7,127.6,123.7,125.6z"/>
	<path class="st0" d="M134,124.8h-2.8v-0.9c2-0.1,2.9-0.6,3.2-2.6h1v13.6H134V124.8z"/>
</g>
<g class="st5">
	<path class="st0" d="M138.2,128.2c0-4.4,2-7,5-7c3.1,0,5,2.6,5,7c0,4.3-1.8,7-5,7C140,135.2,138.2,132.5,138.2,128.2z M146.9,128.2
		c0-3.6-1.3-6-3.7-6c-2.4,0-3.7,2.2-3.7,6c0,3.6,1.3,5.9,3.7,5.9C145.7,134.1,146.9,131.9,146.9,128.2z"/>
</g>
<g class="st5">
	<path class="st0" d="M150.1,131.1c0-1.9,1.1-3,2.7-3.6v-0.1c-1.2-0.5-2-1.5-2-2.9c0-2.1,1.8-3.5,4.1-3.5c2.4,0,4.1,1.5,4.1,3.5
		c0,1.4-0.8,2.4-2,2.9v0.1c1.5,0.5,2.7,1.8,2.7,3.6c0,2.7-2.2,4.1-4.7,4.1C152.4,135.2,150.1,133.8,150.1,131.1z M158.3,131.1
		c0-1.8-1.3-3-3.5-3c-2.2,0-3.4,1.2-3.4,3c0,1.8,1.3,3,3.5,3C157,134.1,158.3,132.9,158.3,131.1z M157.7,124.6c0-1.4-1-2.5-2.8-2.5
		c-1.8,0-2.8,1.1-2.8,2.5c0,1.4,1,2.4,2.8,2.4C156.6,127.1,157.7,126,157.7,124.6z"/>
	<path class="st0" d="M169.5,128.8c1.8-1.1,3.1-1.8,3.1-3.7c0-1.8-1.1-2.9-2.9-2.9c-0.9,0-1.7,0.3-2.2,0.9c-0.5,0.6-0.8,1.4-0.8,2.7
		h-1.3c0-1.5,0.4-2.6,1.2-3.4c0.8-0.8,2-1.2,3.3-1.2c2.5,0,4.1,1.7,4.1,3.9c0,2.7-1.9,3.7-3.9,4.8c-1.6,0.9-3.3,2-3.6,3.8h7.3v1.2
		H165C165.1,131.4,167.4,130.1,169.5,128.8z"/>
</g>
<g class="st5">
	<path class="st0" d="M180.7,128.8c1.8-1.1,3.1-1.8,3.1-3.7c0-1.8-1.1-2.9-2.9-2.9c-0.9,0-1.7,0.3-2.2,0.9c-0.5,0.6-0.8,1.4-0.8,2.7
		h-1.3c0-1.5,0.4-2.6,1.2-3.4c0.8-0.8,2-1.2,3.3-1.2c2.5,0,4.1,1.7,4.1,3.9c0,2.7-1.9,3.7-3.9,4.8c-1.6,0.9-3.3,2-3.6,3.8h7.3v1.2
		h-8.8C176.2,131.4,178.6,130.1,180.7,128.8z"/>
</g>
<g class="st5">
	<path class="st0" d="M187,131.1c0-1.9,1.1-3,2.7-3.6v-0.1c-1.2-0.5-2-1.5-2-2.9c0-2.1,1.8-3.5,4.1-3.5c2.4,0,4.1,1.5,4.1,3.5
		c0,1.4-0.8,2.4-2,2.9v0.1c1.5,0.5,2.7,1.8,2.7,3.6c0,2.7-2.2,4.1-4.7,4.1S187,133.8,187,131.1z M195.3,131.1c0-1.8-1.3-3-3.5-3
		c-2.2,0-3.4,1.2-3.4,3c0,1.8,1.3,3,3.5,3C194,134.1,195.3,132.9,195.3,131.1z M194.6,124.6c0-1.4-1-2.5-2.8-2.5s-2.8,1.1-2.8,2.5
		c0,1.4,1,2.4,2.8,2.4C193.5,127.1,194.6,126,194.6,124.6z"/>
</g>
<g class="st5">
	<path class="st0" d="M57.2,144.5h1.3v6.1h8v-6.1h1.3v14.1h-1.3v-6.9h-8v6.9h-1.3V144.5z"/>
	<path class="st0" d="M71,144.5h9.6v1.2h-8.3v5.1h7.6v1.1h-7.6v5.5h8.5v1.2H71V144.5z"/>
	<path class="st0" d="M87.2,151.4l-4.6-6.9h1.5l3.8,6h0l3.8-6h1.5l-4.6,6.9l4.8,7.2h-1.6l-4-6.2h0l-4.1,6.2h-1.5L87.2,151.4z"/>
	<path class="st0" d="M95.2,150.8h1.5v1.7h-1.5V150.8z M95.2,156.9h1.5v1.7h-1.5V156.9z"/>
	<path class="st0" d="M104.4,154.5h-2l0.2-1.1h2l0.5-3.4h-2l0.2-1.1h2l0.6-3.9h1.1l-0.5,3.9h2.8l0.6-3.9h1.1l-0.6,3.9h2l-0.2,1.1h-2
		l-0.5,3.4h2l-0.2,1.1h-2l-0.6,4.1h-1.1l0.6-4.1h-2.8l-0.6,4.1h-1.1L104.4,154.5z M108.5,153.4l0.5-3.4h-2.8l-0.5,3.4H108.5z"/>
	<path class="st0" d="M113.8,154.4h1.3c0.1,2.2,1.5,3.3,3.5,3.3s3.2-1.1,3.2-3c0-1.8-1.2-2.8-3.3-2.8h-0.9v-1h0.9
		c1.9,0,2.9-1,2.9-2.5c0-1.6-1.2-2.6-2.8-2.6c-2,0-3.1,1.4-3.1,3.2h-1.3c0-2.5,1.6-4.3,4.4-4.3c2.3,0,4,1.4,4,3.6
		c0,1.5-0.8,2.5-2,2.9v0.1c1.7,0.6,2.5,1.8,2.5,3.5c0,2.5-1.9,4-4.5,4C115.9,158.9,113.9,157.2,113.8,154.4z"/>
	<path class="st0" d="M125.6,144.5h5.9c1.3,0,2.3,0.4,3,1c0.7,0.6,1,1.5,1,2.5c0,1.6-0.7,2.6-2.2,3.1v0.1c1.6,0.5,2.7,1.6,2.7,3.5
		c0,1.1-0.4,2.1-1,2.8c-0.7,0.7-1.9,1.2-3.3,1.2h-6.1V144.5z M131.5,150.7c1.7,0,2.7-1,2.7-2.5c0-1.6-1-2.5-2.7-2.5H127v5H131.5z
		 M131.7,157.4c1.1,0,1.9-0.3,2.4-0.8c0.5-0.5,0.7-1.1,0.7-1.9c0-1.8-1.2-2.8-3.1-2.8H127v5.6H131.7z"/>
	<path class="st0" d="M139.8,157.7c-1.3-1.2-1.8-3.2-1.8-6c0-4,1.7-7,5-7c2.4,0,3.7,1.6,3.9,3.5h-1.3c-0.1-1.4-1.1-2.4-2.6-2.4
		c-2.6,0-3.8,2.5-3.8,6.2h0c0.8-1.4,2.1-2.2,3.7-2.2c2.5,0,4.3,1.9,4.3,4.4c0,2.6-1.8,4.6-4.3,4.6
		C141.6,158.9,140.6,158.4,139.8,157.7z M146,154.3c0-2-1.3-3.4-3.1-3.4c-1.9,0-3.3,1.4-3.3,3.4c0,2.1,1.4,3.4,3.3,3.4
		C144.8,157.8,146,156.4,146,154.3z"/>
	<path class="st0" d="M149.3,151.6c0-4.3,2.4-7.4,6.4-7.4c3,0,5,1.7,5.4,4.3h-1.3c-0.4-1.8-1.8-3.1-4.1-3.1c-3.3,0-5,2.7-5,6.2
		c0,3.5,1.8,6.1,5,6.1c2.7,0,4.2-1.9,4.4-4.2h1.3c-0.1,1.4-0.6,2.8-1.5,3.7c-1,1.1-2.5,1.7-4.3,1.7
		C151.7,158.9,149.3,155.9,149.3,151.6z"/>
	<path class="st0" d="M163.7,144.5h9.6v1.2h-8.3v5.1h7.6v1.1h-7.6v5.5h8.5v1.2h-9.8V144.5z"/>
	<path class="st0" d="M181.6,155.1h-6.3V154l6.5-9h1.1v9.1h2.1v1.1h-2.1v3.5h-1.2V155.1z M181.6,154.1v-7h0l-5,6.9v0.1H181.6z"/>
</g>
<g class="st5">
	<path class="st0" d="M367.3,103l1.1-4.9h0.2c0.7,3.5,3.1,5.5,5.9,5.5c1.8,0,3-1,3-2.7c0-1.2-0.6-2-2.3-2.7l-3.6-1.6
		c-2.5-1.1-3.8-2.9-3.8-5.2c0-2.8,1.9-5.4,6.4-5.4c1.9,0,4.2,0.6,5.8,1.4l-1.2,4.5h-0.2c-0.8-3.4-2.8-5-5.3-5c-2,0-3,1-3,2.3
		c0,1.2,0.6,1.9,2.3,2.7l3.8,1.8c2.6,1.2,3.6,2.7,3.6,4.9c0,3.4-2.6,5.9-6.4,5.9C371.1,104.6,369,104,367.3,103z"/>
	<path class="st0" d="M393.1,99.6c-0.6,3.6-2.9,4.9-5.1,4.9c-2.9,0-5.6-2.3-5.6-6.6c0-4.1,2.3-7.1,5.7-7.1c2.4,0,4.9,1.5,4.9,5.7
		h-7.7c0.3,3.2,1.9,5,4.3,5c1.4,0,2.5-0.4,3.2-2L393.1,99.6z M385.3,95.6v0.3h4.3c0-3.2-0.8-4.3-2.1-4.3
		C386.2,91.5,385.3,93.1,385.3,95.6z"/>
	<path class="st0" d="M395.6,97.9c0-4.2,2.6-7.1,6.4-7.1c1.7,0,3.1,0.4,4.2,1l-1.3,4.5l-0.2,0c-0.2-2.6-1.3-4-3.1-4
		c-2.2,0-3.3,1.6-3.3,4.1c0,2.4,1.5,5.1,4.5,5.1c1.5,0,2.7-0.5,3.3-2l0.2,0c-0.2,3-2.2,5-5,5C397.9,104.5,395.6,101.8,395.6,97.9z"
		/>
</g>
<g class="st5">
	<path class="st6" d="M367.3,103l1.1-4.9h0.2c0.7,3.5,3.1,5.5,5.9,5.5c1.8,0,3-1,3-2.7c0-1.2-0.6-2-2.3-2.7l-3.6-1.6
		c-2.5-1.1-3.8-2.9-3.8-5.2c0-2.8,1.9-5.4,6.4-5.4c1.9,0,4.2,0.6,5.8,1.4l-1.2,4.5h-0.2c-0.8-3.4-2.8-5-5.3-5c-2,0-3,1-3,2.3
		c0,1.2,0.6,1.9,2.3,2.7l3.8,1.8c2.6,1.2,3.6,2.7,3.6,4.9c0,3.4-2.6,5.9-6.4,5.9C371.1,104.6,369,104,367.3,103z"/>
	<path class="st6" d="M393.1,99.6c-0.6,3.6-2.9,4.9-5.1,4.9c-2.9,0-5.6-2.3-5.6-6.6c0-4.1,2.3-7.1,5.7-7.1c2.4,0,4.9,1.5,4.9,5.7
		h-7.7c0.3,3.2,1.9,5,4.3,5c1.4,0,2.5-0.4,3.2-2L393.1,99.6z M385.3,95.6v0.3h4.3c0-3.2-0.8-4.3-2.1-4.3
		C386.2,91.5,385.3,93.1,385.3,95.6z"/>
	<path class="st6" d="M395.6,97.9c0-4.2,2.6-7.1,6.4-7.1c1.7,0,3.1,0.4,4.2,1l-1.3,4.5l-0.2,0c-0.2-2.6-1.3-4-3.1-4
		c-2.2,0-3.3,1.6-3.3,4.1c0,2.4,1.5,5.1,4.5,5.1c1.5,0,2.7-0.5,3.3-2l0.2,0c-0.2,3-2.2,5-5,5C397.9,104.5,395.6,101.8,395.6,97.9z"
		/>
</g>
<g class="st5">
	<path class="st0" d="M408.3,97.6c0-4,2.6-6.8,6.5-6.8s6.5,2.8,6.5,6.8s-2.6,6.8-6.5,6.8S408.3,101.6,408.3,97.6z M417.3,97.6
		c0-4.2-0.8-6-2.6-6c-1.8,0-2.6,1.8-2.6,6c0,4.2,0.8,6,2.6,6C416.5,103.7,417.3,101.8,417.3,97.6z"/>
</g>
<g class="st5">
	<path class="st6" d="M408.3,97.6c0-4,2.6-6.8,6.5-6.8s6.5,2.8,6.5,6.8s-2.6,6.8-6.5,6.8S408.3,101.6,408.3,97.6z M417.3,97.6
		c0-4.2-0.8-6-2.6-6c-1.8,0-2.6,1.8-2.6,6c0,4.2,0.8,6,2.6,6C416.5,103.7,417.3,101.8,417.3,97.6z"/>
</g>
<g class="st5">
	<path class="st0" d="M437.1,103.9v0.2h-6.3v-0.2c0.8-0.2,1.1-0.6,1.1-1.5v-7.6c0-1.5-0.6-2.3-1.8-2.3c-1,0-1.6,0.6-1.9,1.2v8.7
		c0,0.9,0.3,1.3,1.1,1.5v0.2h-6.3v-0.2c1-0.2,1.5-0.7,1.5-1.7v-8c0-1.3-0.4-1.7-1.5-1.8v-0.2l5.2-1.4v2.5c0.5-1.5,1.9-2.5,3.7-2.5
		c2.4,0,3.7,1.5,3.7,3.8v7.6C435.6,103.3,436.1,103.7,437.1,103.9z"/>
	<path class="st0" d="M452.6,103.9v0.2h-5.2v-2.2c-0.5,1.4-1.7,2.6-3.6,2.6c-2.8,0-4.6-2.5-4.6-6.3c0-4.4,2.7-7.3,6.1-7.3
		c0.9,0,1.6,0.2,2.1,0.6v-2.3c0-1.1-0.5-1.6-2.1-1.5v-0.2l5.8-1.7v16.3C451.1,103.4,451.6,103.7,452.6,103.9z M447.4,101.5v-9.1
		c-0.2-0.5-0.7-1-1.5-1c-1.7,0-2.7,2.2-2.7,5.6c0,3.4,1.2,5.4,2.7,5.4C446.6,102.5,447.1,102.1,447.4,101.5z"/>
</g>
<g class="st5">
	<path class="st6" d="M437.1,103.9v0.2h-6.3v-0.2c0.8-0.2,1.1-0.6,1.1-1.5v-7.6c0-1.5-0.6-2.3-1.8-2.3c-1,0-1.6,0.6-1.9,1.2v8.7
		c0,0.9,0.3,1.3,1.1,1.5v0.2h-6.3v-0.2c1-0.2,1.5-0.7,1.5-1.7v-8c0-1.3-0.4-1.7-1.5-1.8v-0.2l5.2-1.4v2.5c0.5-1.5,1.9-2.5,3.7-2.5
		c2.4,0,3.7,1.5,3.7,3.8v7.6C435.6,103.3,436.1,103.7,437.1,103.9z"/>
	<path class="st6" d="M452.6,103.9v0.2h-5.2v-2.2c-0.5,1.4-1.7,2.6-3.6,2.6c-2.8,0-4.6-2.5-4.6-6.3c0-4.4,2.7-7.3,6.1-7.3
		c0.9,0,1.6,0.2,2.1,0.6v-2.3c0-1.1-0.5-1.6-2.1-1.5v-0.2l5.8-1.7v16.3C451.1,103.4,451.6,103.7,452.6,103.9z M447.4,101.5v-9.1
		c-0.2-0.5-0.7-1-1.5-1c-1.7,0-2.7,2.2-2.7,5.6c0,3.4,1.2,5.4,2.7,5.4C446.6,102.5,447.1,102.1,447.4,101.5z"/>
</g>
<g class="st5">
	<path class="st0" d="M467.8,101.4c-0.4,2.1-1.8,3.1-3.5,3.1c-1.6,0-2.4-0.9-2.6-2.2l-0.1-0.2c-0.4,1.3-1.6,2.4-3.5,2.4
		c-2.2,0-3.4-1.5-3.4-3.1c0-2.2,1.8-3.7,4.7-4.3l2.1-0.4v-0.5c0-1.9-0.7-3.3-2.8-3.3c-1.6,0-2.8,0.8-3.3,2.7l-0.2-0.1
		c0.4-2.9,2.3-4.7,5.3-4.7c3.3,0,4.8,2.1,4.8,5.3v5c0,0.9,0.4,1.3,1,1.3c0.5,0,1-0.3,1.3-1.2L467.8,101.4z M461.6,101.6v-4.4l-1,0.2
		c-2,0.4-2.3,1.6-2.3,2.9c0,1.3,0.6,2.3,1.8,2.3C460.8,102.6,461.3,102.3,461.6,101.6z"/>
</g>
<g class="st5">
	<path class="st6" d="M467.8,101.4c-0.4,2.1-1.8,3.1-3.5,3.1c-1.6,0-2.4-0.9-2.6-2.2l-0.1-0.2c-0.4,1.3-1.6,2.4-3.5,2.4
		c-2.2,0-3.4-1.5-3.4-3.1c0-2.2,1.8-3.7,4.7-4.3l2.1-0.4v-0.5c0-1.9-0.7-3.3-2.8-3.3c-1.6,0-2.8,0.8-3.3,2.7l-0.2-0.1
		c0.4-2.9,2.3-4.7,5.3-4.7c3.3,0,4.8,2.1,4.8,5.3v5c0,0.9,0.4,1.3,1,1.3c0.5,0,1-0.3,1.3-1.2L467.8,101.4z M461.6,101.6v-4.4l-1,0.2
		c-2,0.4-2.3,1.6-2.3,2.9c0,1.3,0.6,2.3,1.8,2.3C460.8,102.6,461.3,102.3,461.6,101.6z"/>
</g>
<g class="st5">
	<path class="st0" d="M478.7,90.8v3.6h-0.1c-0.3-0.2-0.7-0.2-1.3-0.2c-1.6,0-2.7,0.9-2.7,4.2v3.9c0,1.1,0.6,1.5,2,1.7v0.2h-7.2v-0.2
		c1-0.2,1.5-0.7,1.5-1.7v-7.8c0-1.4-0.4-1.9-1.5-2v-0.2l5-1.5v5.6h0.1c0.2-4,1.7-5.7,3.9-5.7H478.7z"/>
</g>
<g class="st5">
	<path class="st6" d="M478.7,90.8v3.6h-0.1c-0.3-0.2-0.7-0.2-1.3-0.2c-1.6,0-2.7,0.9-2.7,4.2v3.9c0,1.1,0.6,1.5,2,1.7v0.2h-7.2v-0.2
		c1-0.2,1.5-0.7,1.5-1.7v-7.8c0-1.4-0.4-1.9-1.5-2v-0.2l5-1.5v5.6h0.1c0.2-4,1.7-5.7,3.9-5.7H478.7z"/>
</g>
<g class="st5">
	<path class="st0" d="M479.7,108.8l1-3.2h0.1c0.7,0.6,1.9,0.9,2.7,0.9c1.5,0,2.6-0.4,3.2-1.6l0.2-0.3l-4.7-11.2
		c-0.5-1.2-1.1-2-1.9-2.1v-0.2h6.9v0.2c-1,0.2-1.3,0.5-1.3,1.1c0,0.4,0.1,0.8,0.3,1.2l2.3,6.2l2.4-5.9c0.2-0.5,0.3-0.9,0.3-1.2
		c0-0.8-0.5-1.3-1.3-1.4v-0.2h3.8v0.2c-0.9,0.3-1.3,0.9-1.8,2.3l-4.5,11.4c-1.3,3.6-3,4.4-5.1,4.4
		C481.5,109.5,480.5,109.3,479.7,108.8z"/>
</g>
<g class="st5">
	<path class="st6" d="M479.7,108.8l1-3.2h0.1c0.7,0.6,1.9,0.9,2.7,0.9c1.5,0,2.6-0.4,3.2-1.6l0.2-0.3l-4.7-11.2
		c-0.5-1.2-1.1-2-1.9-2.1v-0.2h6.9v0.2c-1,0.2-1.3,0.5-1.3,1.1c0,0.4,0.1,0.8,0.3,1.2l2.3,6.2l2.4-5.9c0.2-0.5,0.3-0.9,0.3-1.2
		c0-0.8-0.5-1.3-1.3-1.4v-0.2h3.8v0.2c-0.9,0.3-1.3,0.9-1.8,2.3l-4.5,11.4c-1.3,3.6-3,4.4-5.1,4.4
		C481.5,109.5,480.5,109.3,479.7,108.8z"/>
</g>
<g class="st5">
	<path class="st0" d="M368,120.8h6.4c2.6,0,4.1,1.5,4.1,3.9c0,1.8-0.8,2.9-2.4,3.5v0.1c1.5,0.5,2,1.6,2.1,3.8
		c0.1,2.3,0.4,2.9,0.6,3.1v0.1h-1.4c-0.3-0.2-0.4-0.8-0.5-3.2c-0.1-2.5-1-3.2-3.1-3.2h-4.4v6.4H368V120.8z M373.9,127.6
		c2.1,0,3.2-1,3.2-2.8c0-1.8-0.8-2.8-3-2.8h-4.8v5.6H373.9z"/>
</g>
<g class="st5">
	<path class="st0" d="M380.7,127.9c0-4.2,2.4-7.5,6.8-7.5c2.9,0,5.1,1.5,5.7,4.4h-1.4c-0.4-2.1-2.1-3.3-4.3-3.3
		c-3.7,0-5.4,2.8-5.4,6.3c0,3.5,1.8,6.3,5.2,6.3c3.3,0,4.7-2.3,4.7-4.8v-0.5h-4.6v-1.2h5.9v7.4h-0.9l-0.3-2.3H392
		c-0.7,1.2-2.1,2.6-4.8,2.6C383.1,135.4,380.7,132.2,380.7,127.9z"/>
</g>
<g class="st5">
	<path class="st0" d="M396.4,120.8h6c1.3,0,2.3,0.4,3,1c0.7,0.6,1,1.5,1,2.6c0,1.6-0.7,2.6-2.2,3.1v0.1c1.6,0.5,2.8,1.6,2.8,3.5
		c0,1.2-0.4,2.1-1,2.8c-0.7,0.8-1.9,1.2-3.4,1.2h-6.2V120.8z M402.3,127.1c1.7,0,2.7-1,2.7-2.6c0-1.6-1-2.5-2.7-2.5h-4.6v5.1H402.3z
		 M402.5,133.9c1.1,0,1.9-0.3,2.4-0.8c0.5-0.5,0.7-1.1,0.7-2c0-1.8-1.3-2.9-3.1-2.9h-4.8v5.7H402.5z"/>
</g>
<g class="st5">
	<path class="st0" d="M409.3,127.2h1.5v1.7h-1.5V127.2z M409.3,133.4h1.5v1.7h-1.5V133.4z"/>
	<path class="st0" d="M421.3,128.9c1.9-1.1,3.1-1.8,3.1-3.8c0-1.8-1.2-2.9-3-2.9c-1,0-1.7,0.3-2.3,0.9c-0.5,0.6-0.8,1.4-0.9,2.7H417
		c0-1.5,0.4-2.7,1.2-3.5c0.8-0.8,2-1.2,3.3-1.2c2.6,0,4.2,1.7,4.2,4c0,2.7-2,3.7-4,4.9c-1.6,0.9-3.3,2-3.6,3.9h7.4v1.2h-8.9
		C416.7,131.6,419.1,130.2,421.3,128.9z"/>
	<path class="st0" d="M427.6,131.4h1.3c0.2,1.7,1.2,2.8,3.2,2.8c2,0,3.3-1.4,3.3-3.5c0-2.1-1.3-3.4-3.2-3.4c-1.5,0-2.5,0.6-3,1.4
		h-1.2l1.2-7.3h6.8v1.2h-5.9l-0.8,4.7h0c0.8-0.7,1.6-1.1,3-1.1c2.2,0,4.3,1.6,4.3,4.6c0,2.8-1.8,4.7-4.6,4.7
		C429.5,135.4,427.6,133.7,427.6,131.4z"/>
	<path class="st0" d="M438.4,131.4h1.3c0.2,1.7,1.2,2.8,3.2,2.8c2,0,3.3-1.4,3.3-3.5c0-2.1-1.3-3.4-3.2-3.4c-1.5,0-2.5,0.6-3,1.4
		h-1.2l1.2-7.3h6.8v1.2h-5.9l-0.8,4.7h0c0.8-0.7,1.6-1.1,3-1.1c2.2,0,4.3,1.6,4.3,4.6c0,2.8-1.8,4.7-4.6,4.7
		C440.4,135.4,438.5,133.7,438.4,131.4z"/>
	<path class="st0" d="M453,131.3c0-1.9,1.2-3.1,2.7-3.6v-0.1c-1.3-0.5-2-1.6-2-3c0-2.1,1.8-3.5,4.2-3.5c2.5,0,4.2,1.5,4.2,3.5
		c0,1.4-0.8,2.5-2.1,3v0.1c1.5,0.5,2.7,1.8,2.7,3.6c0,2.8-2.3,4.1-4.8,4.1S453,134,453,131.3z M461.4,131.3c0-1.8-1.3-3.1-3.6-3.1
		c-2.2,0-3.5,1.3-3.5,3.1c0,1.8,1.3,3,3.5,3C460.1,134.3,461.4,133,461.4,131.3z M460.8,124.7c0-1.4-1.1-2.5-2.9-2.5
		c-1.8,0-2.9,1.1-2.9,2.5c0,1.4,1,2.5,2.9,2.5C459.7,127.1,460.8,126,460.8,124.7z"/>
	<path class="st0" d="M464.5,131.4h1.3c0.2,1.7,1.2,2.8,3.2,2.8c2,0,3.3-1.4,3.3-3.5c0-2.1-1.3-3.4-3.2-3.4c-1.5,0-2.5,0.6-3,1.4
		h-1.2l1.2-7.3h6.8v1.2H467l-0.8,4.7h0c0.8-0.7,1.6-1.1,3-1.1c2.2,0,4.3,1.6,4.3,4.6c0,2.8-1.8,4.7-4.6,4.7
		C466.4,135.4,464.5,133.7,464.5,131.4z"/>
	<path class="st0" d="M482,124.8h-2.9v-0.9c2-0.1,3-0.6,3.2-2.6h1v13.8H482V124.8z"/>
	<path class="st0" d="M488.2,134.2c-1.4-1.2-1.8-3.2-1.8-6.1c0-4.1,1.7-7.1,5.1-7.1c2.4,0,3.7,1.6,4,3.6h-1.3
		c-0.1-1.4-1.1-2.4-2.6-2.4c-2.7,0-3.9,2.5-3.9,6.3h0c0.8-1.4,2.1-2.2,3.8-2.2c2.5,0,4.4,1.9,4.4,4.5c0,2.6-1.8,4.7-4.4,4.7
		C490,135.4,489,135,488.2,134.2z M494.5,130.8c0-2-1.3-3.4-3.2-3.4c-1.9,0-3.4,1.4-3.4,3.5c0,2.1,1.4,3.5,3.4,3.5
		C493.3,134.3,494.5,132.8,494.5,130.8z"/>
</g>
<g class="st5">
	<path class="st0" d="M368,144.8h1.3v6.2h8.1v-6.2h1.3v14.3h-1.3v-7h-8.1v7H368V144.8z"/>
	<path class="st0" d="M382.1,144.8h9.8v1.2h-8.4v5.2h7.7v1.2h-7.7v5.6h8.6v1.2h-10V144.8z"/>
	<path class="st0" d="M398.8,151.9l-4.7-7h1.5l3.9,6.1h0l3.9-6.1h1.5l-4.6,7l4.9,7.3h-1.6l-4.1-6.3h0l-4.1,6.3h-1.5L398.8,151.9z"/>
	<path class="st0" d="M407.2,151.3h1.5v1.7h-1.5V151.3z M407.2,157.4h1.5v1.7h-1.5V157.4z"/>
	<path class="st0" d="M417,155h-2l0.2-1.1h2l0.5-3.4h-2l0.2-1.1h2l0.6-4h1.1l-0.5,4h2.9l0.6-4h1.1l-0.6,4h2l-0.2,1.1h-2l-0.5,3.4h2
		l-0.2,1.1h-2l-0.6,4.2h-1.1l0.6-4.2h-2.9l-0.6,4.2h-1.1L417,155z M421.1,153.9l0.5-3.4h-2.9l-0.5,3.4H421.1z"/>
	<path class="st0" d="M427.6,144.8h9.4v1.2h-8v5.1h6.8v1.2H429v6.9h-1.3V144.8z"/>
	<path class="st0" d="M439.6,144.8h9.4v1.2h-8v5.1h6.8v1.2h-6.8v6.9h-1.3V144.8z"/>
	<path class="st0" d="M450.8,155.5h1.3c0.2,1.7,1.2,2.8,3.2,2.8c2,0,3.3-1.4,3.3-3.5c0-2.1-1.3-3.4-3.2-3.4c-1.5,0-2.5,0.6-3,1.4
		h-1.2l1.2-7.3h6.8v1.2h-5.9l-0.8,4.7h0c0.8-0.7,1.6-1.1,3-1.1c2.2,0,4.3,1.6,4.3,4.6c0,2.8-1.8,4.7-4.6,4.7
		C452.7,159.5,450.9,157.8,450.8,155.5z"/>
</g>
<g class="st5">
	<path class="st0" d="M461,155.5h1.3c0.2,1.7,1.2,2.8,3.2,2.8c2,0,3.2-1.4,3.2-3.5c0-2.1-1.3-3.4-3.2-3.4c-1.5,0-2.5,0.6-3,1.4h-1.2
		l1.2-7.3h6.8v1.2h-5.9l-0.8,4.7h0c0.8-0.7,1.6-1.1,3-1.1c2.2,0,4.3,1.6,4.3,4.6c0,2.8-1.8,4.7-4.6,4.7
		C462.9,159.5,461,157.8,461,155.5z"/>
</g>
<g class="st5">
	<path class="st0" d="M474.4,148.8h-2.9V148c2-0.1,3-0.6,3.2-2.6h1v13.8h-1.3V148.8z"/>
	<path class="st0" d="M478.9,152.3c0-4.5,2-7.2,5.1-7.2c3.1,0,5.1,2.7,5.1,7.2c0,4.4-1.8,7.2-5.1,7.2
		C480.8,159.5,478.9,156.7,478.9,152.3z M487.8,152.3c0-3.7-1.3-6.1-3.7-6.1c-2.4,0-3.8,2.3-3.8,6.1c0,3.7,1.3,6,3.8,6
		C486.5,158.3,487.8,156.1,487.8,152.3z"/>
</g>
<g class="st5">
	<path class="st0" d="M687.5,99.5c0,3-2.5,4.6-7,4.6h-8.3v-0.2c1.2-0.3,1.7-0.8,1.7-2.6V89.1c0-1.6-0.5-2.1-1.7-2.4v-0.2h8.3
		c4,0,6.2,1.4,6.2,4.1c0,2.5-2,4.1-5.2,4.3v0.1C685,95.1,687.5,96.6,687.5,99.5z M678,87.2v7.7h1c2.3,0,3.2-1.5,3.2-3.9
		c0-2.5-1.1-3.8-3.2-3.8H678z M682.9,99.5c0-2.8-1.2-4.1-3.6-4.1H678v8h1.5C681.6,103.5,682.9,102,682.9,99.5z"/>
	<path class="st0" d="M696.3,103.9v0.2h-6.7v-0.2c1-0.2,1.5-0.7,1.5-1.7V89.2c0-1.2-0.4-1.6-1.5-1.7v-0.2l5.2-1.5v16.5
		C694.8,103.3,695.3,103.7,696.3,103.9z"/>
	<path class="st0" d="M711.6,101.4c-0.4,2.1-1.8,3.1-3.5,3.1c-1.6,0-2.4-0.9-2.6-2.2l-0.1-0.2c-0.4,1.3-1.6,2.4-3.5,2.4
		c-2.2,0-3.4-1.5-3.4-3.1c0-2.2,1.8-3.7,4.7-4.3l2.1-0.4v-0.5c0-1.9-0.7-3.3-2.8-3.3c-1.6,0-2.8,0.8-3.3,2.7l-0.2-0.1
		c0.4-2.9,2.3-4.7,5.3-4.7c3.3,0,4.8,2.1,4.8,5.3v5c0,0.9,0.4,1.3,1,1.3c0.5,0,1-0.3,1.3-1.2L711.6,101.4z M705.4,101.6v-4.4l-1,0.2
		c-2,0.4-2.3,1.6-2.3,2.9c0,1.3,0.6,2.3,1.8,2.3C704.6,102.6,705.1,102.3,705.4,101.6z"/>
</g>
<g class="st5">
	<path class="st0" d="M713.1,97.9c0-4.2,2.6-7.1,6.4-7.1c1.7,0,3.1,0.4,4.2,1l-1.3,4.5l-0.2,0c-0.2-2.6-1.3-4-3.1-4
		c-2.2,0-3.3,1.6-3.3,4.1c0,2.4,1.5,5.1,4.5,5.1c1.5,0,2.7-0.5,3.3-2l0.2,0c-0.2,3-2.2,5-5,5C715.4,104.5,713.1,101.8,713.1,97.9z"
		/>
</g>
<g class="st5">
	<path class="st0" d="M725.6,103.9c1-0.2,1.5-0.7,1.5-1.7V89.2c0-1.2-0.4-1.6-1.5-1.7v-0.2l5.2-1.5v16.6c0,0.9,0.4,1.3,1.5,1.5v0.2
		h-6.6V103.9z M730.9,97.4l3.8-3c1.1-0.9,1.4-1.4,1.4-1.9c0-0.6-0.4-1.1-1.6-1.1v-0.2h5.2v0.2c-1.2,0.6-2.6,1.7-3.3,2.2l-2.4,2
		l4.3,6.6c0.8,1.2,1.4,1.6,2.3,1.8v0.2h-5.5L730.9,97.4z"/>
</g>
<g class="st5">
	<path class="st0" d="M672.7,120.8h6.4c2.6,0,4.1,1.5,4.1,3.9c0,1.8-0.8,2.9-2.4,3.5v0.1c1.5,0.5,2,1.6,2.1,3.8
		c0.1,2.3,0.4,2.9,0.6,3.1v0.1H682c-0.3-0.2-0.4-0.8-0.5-3.2c-0.1-2.5-1-3.2-3.1-3.2H674v6.4h-1.3V120.8z M678.6,127.6
		c2.1,0,3.2-1,3.2-2.8c0-1.8-0.8-2.8-3-2.8H674v5.6H678.6z"/>
</g>
<g class="st5">
	<path class="st0" d="M685.4,127.9c0-4.2,2.4-7.5,6.8-7.5c2.9,0,5.1,1.5,5.7,4.4h-1.4c-0.4-2.1-2.1-3.3-4.3-3.3
		c-3.7,0-5.4,2.8-5.4,6.3c0,3.5,1.8,6.3,5.2,6.3c3.3,0,4.7-2.3,4.7-4.8v-0.5h-4.6v-1.2h5.9v7.4h-0.9l-0.3-2.3h-0.1
		c-0.7,1.2-2.1,2.6-4.8,2.6C687.8,135.4,685.4,132.2,685.4,127.9z"/>
</g>
<g class="st5">
	<path class="st0" d="M701.1,120.8h6c1.3,0,2.3,0.4,3,1c0.7,0.6,1,1.5,1,2.6c0,1.6-0.7,2.6-2.2,3.1v0.1c1.6,0.5,2.8,1.6,2.8,3.5
		c0,1.2-0.4,2.1-1,2.8c-0.7,0.8-1.9,1.2-3.4,1.2h-6.2V120.8z M707,127.1c1.7,0,2.7-1,2.7-2.6c0-1.6-1-2.5-2.7-2.5h-4.6v5.1H707z
		 M707.2,133.9c1.1,0,1.9-0.3,2.4-0.8c0.5-0.5,0.7-1.1,0.7-2c0-1.8-1.3-2.9-3.2-2.9h-4.8v5.7H707.2z"/>
</g>
<g class="st5">
	<path class="st0" d="M714,127.2h1.5v1.7H714V127.2z M714,133.4h1.5v1.7H714V133.4z"/>
	<path class="st0" d="M727.6,131.6h-6.4v-1.2l6.6-9.2h1.1v9.3h2.1v1.1h-2.1v3.5h-1.3V131.6z M727.6,130.5v-7.1h0l-5.1,7v0.1H727.6z"
		/>
	<path class="st0" d="M732.6,130.9h1.3c0.1,2.2,1.5,3.4,3.6,3.4c2.1,0,3.3-1.1,3.3-3c0-1.8-1.2-2.9-3.4-2.9h-1v-1.1h0.9
		c1.9,0,2.9-1,2.9-2.5c0-1.7-1.2-2.6-2.8-2.6c-2,0-3.1,1.4-3.1,3.3H733c0-2.5,1.6-4.4,4.4-4.4c2.3,0,4.1,1.4,4.1,3.7
		c0,1.6-0.8,2.5-2.1,3v0.1c1.7,0.6,2.6,1.8,2.6,3.6c0,2.5-1.9,4.1-4.6,4.1C734.7,135.4,732.6,133.7,732.6,130.9z"/>
	<path class="st0" d="M753.8,131.6h-6.4v-1.2l6.6-9.2h1.1v9.3h2.1v1.1h-2.1v3.5h-1.3V131.6z M753.8,130.5v-7.1h0l-5.1,7v0.1H753.8z"
		/>
	<path class="st0" d="M758.8,131.4h1.3c0.2,1.7,1.2,2.8,3.2,2.8c2,0,3.3-1.4,3.3-3.5c0-2.1-1.3-3.4-3.2-3.4c-1.5,0-2.5,0.6-3,1.4
		h-1.2l1.2-7.3h6.8v1.2h-5.9l-0.8,4.7h0c0.8-0.7,1.6-1.1,3-1.1c2.2,0,4.3,1.6,4.3,4.6c0,2.8-1.8,4.7-4.6,4.7
		C760.7,135.4,758.9,133.7,758.8,131.4z"/>
	<path class="st0" d="M773.3,131.4h1.3c0.2,1.7,1.2,2.8,3.2,2.8c2,0,3.2-1.4,3.2-3.5c0-2.1-1.3-3.4-3.2-3.4c-1.5,0-2.5,0.6-3,1.4
		h-1.2l1.2-7.3h6.8v1.2h-5.9l-0.8,4.7h0c0.8-0.7,1.6-1.1,3-1.1c2.2,0,4.3,1.6,4.3,4.6c0,2.8-1.8,4.7-4.6,4.7
		C775.2,135.4,773.3,133.7,773.3,131.4z"/>
	<path class="st0" d="M784.1,130.9h1.3c0.1,2.2,1.5,3.4,3.6,3.4c2.1,0,3.3-1.1,3.3-3c0-1.8-1.2-2.9-3.4-2.9h-1v-1.1h0.9
		c1.9,0,3-1,3-2.5c0-1.7-1.2-2.6-2.8-2.6c-2,0-3.1,1.4-3.1,3.3h-1.3c0-2.5,1.6-4.4,4.4-4.4c2.3,0,4.1,1.4,4.1,3.7
		c0,1.6-0.8,2.5-2.1,3v0.1c1.7,0.6,2.6,1.8,2.6,3.6c0,2.5-1.9,4.1-4.6,4.1C786.2,135.4,784.1,133.7,784.1,130.9z"/>
</g>
<g class="st5">
	<path class="st0" d="M672.7,144.8h1.3v6.2h8.1v-6.2h1.3v14.3h-1.3v-7H674v7h-1.3V144.8z"/>
	<path class="st0" d="M686.8,144.8h9.8v1.2h-8.4v5.2h7.7v1.2h-7.7v5.6h8.6v1.2h-10V144.8z"/>
	<path class="st0" d="M703.5,151.9l-4.7-7h1.5l3.9,6.1h0l3.9-6.1h1.5l-4.6,7l4.9,7.3h-1.6l-4.1-6.3h0l-4.1,6.3h-1.5L703.5,151.9z"/>
	<path class="st0" d="M711.9,151.3h1.5v1.7h-1.5V151.3z M711.9,157.4h1.5v1.7h-1.5V157.4z"/>
</g>
<g class="st5">
	<path class="st0" d="M721.2,155h-2l0.2-1.1h2l0.5-3.4h-2l0.2-1.1h2l0.6-4h1.1l-0.5,4h2.9l0.6-4h1.1l-0.6,4h2l-0.2,1.1h-2l-0.5,3.4
		h2l-0.2,1.1h-2l-0.6,4.2h-1.1l0.6-4.2h-2.9l-0.6,4.2h-1.1L721.2,155z M725.3,153.9l0.5-3.4h-2.9l-0.5,3.4H725.3z"/>
</g>
<g class="st5">
	<path class="st0" d="M735.8,153c1.9-1.1,3.1-1.8,3.1-3.8c0-1.8-1.2-2.9-3-2.9c-1,0-1.7,0.3-2.3,0.9c-0.5,0.6-0.8,1.4-0.9,2.7h-1.3
		c0-1.5,0.4-2.7,1.2-3.5c0.8-0.8,2-1.2,3.3-1.2c2.6,0,4.2,1.7,4.2,4c0,2.7-2,3.7-4,4.9c-1.6,0.9-3.3,2-3.6,3.9h7.4v1.2h-8.9
		C731.3,155.6,733.6,154.3,735.8,153z"/>
	<path class="st0" d="M743.1,144.8h6c1.3,0,2.3,0.4,3,1c0.7,0.6,1,1.5,1,2.6c0,1.6-0.7,2.6-2.2,3.1v0.1c1.6,0.5,2.8,1.6,2.8,3.5
		c0,1.2-0.4,2.1-1,2.8c-0.7,0.8-1.9,1.2-3.4,1.2h-6.2V144.8z M749,151.1c1.7,0,2.7-1,2.7-2.6c0-1.6-1-2.5-2.7-2.5h-4.6v5.1H749z
		 M749.2,158c1.1,0,1.9-0.3,2.4-0.8c0.5-0.5,0.7-1.1,0.7-2c0-1.8-1.3-2.9-3.1-2.9h-4.8v5.7H749.2z"/>
	<path class="st0" d="M760.3,153c1.9-1.1,3.2-1.8,3.2-3.8c0-1.8-1.2-2.9-3-2.9c-1,0-1.7,0.3-2.3,0.9c-0.5,0.6-0.8,1.4-0.9,2.7H756
		c0-1.5,0.4-2.7,1.2-3.5c0.8-0.8,2-1.2,3.3-1.2c2.6,0,4.2,1.7,4.2,4c0,2.7-2,3.7-4,4.9c-1.6,0.9-3.3,2-3.6,3.9h7.4v1.2h-8.9
		C755.8,155.6,758.2,154.3,760.3,153z"/>
	<path class="st0" d="M767.6,144.8h5.1c4.2,0,6.1,3,6.1,7.2s-2,7.1-6.3,7.1h-5V144.8z M772.5,158c3.4,0,4.9-2.3,4.9-5.9
		s-1.3-6-4.8-6h-3.7v12H772.5z"/>
	<path class="st0" d="M780.8,154.9h1.3c0.1,2.2,1.5,3.4,3.6,3.4c2.1,0,3.3-1.1,3.3-3c0-1.8-1.2-2.9-3.4-2.9h-1v-1.1h0.9
		c1.9,0,2.9-1,2.9-2.5c0-1.7-1.2-2.6-2.8-2.6c-2,0-3.1,1.4-3.1,3.3h-1.3c0-2.5,1.6-4.4,4.4-4.4c2.3,0,4.1,1.4,4.1,3.7
		c0,1.6-0.8,2.5-2.1,3v0.1c1.7,0.6,2.6,1.8,2.6,3.6c0,2.5-1.9,4.1-4.6,4.1C783,159.5,780.9,157.8,780.8,154.9z"/>
	<path class="st0" d="M792.3,155.5h1.3c0.2,1.7,1.2,2.8,3.2,2.8c2,0,3.3-1.4,3.3-3.5c0-2.1-1.3-3.4-3.2-3.4c-1.5,0-2.5,0.6-3,1.4
		h-1.2l1.2-7.3h6.8v1.2h-5.9l-0.8,4.7h0c0.8-0.7,1.6-1.1,3-1.1c2.2,0,4.3,1.6,4.3,4.6c0,2.8-1.8,4.7-4.6,4.7
		C794.2,159.5,792.4,157.8,792.3,155.5z"/>
</g>
<g class="st5">
	<path class="st7" d="M993.4,86.5v0.2c-1.2,0.2-1.7,0.9-2.5,2.9l-5.7,14.7h-0.1l-4.3-10.9l-4.2,10.9h-0.1l-5.9-15
		c-0.6-1.5-1.1-2.4-2.3-2.6v-0.2h7.7v0.2c-0.8,0.2-1.2,0.5-1.2,1.3c0,0.4,0.1,1,0.4,1.7l3.1,8.1l2.1-5.4l-1.3-3.2
		c-0.5-1.4-0.8-1.9-1.6-2.6v-0.2h7.5v0.2c-1,0.1-1.7,0.6-1.7,1.6c0,0.4,0.1,0.8,0.3,1.3l3.2,8.3l3.1-8.1c0.2-0.6,0.3-1,0.3-1.4
		c0-1-0.6-1.5-1.5-1.6v-0.2H993.4z"/>
	<path class="st7" d="M995.1,103.9c1-0.2,1.5-0.7,1.5-1.7V89.2c0-1.2-0.4-1.6-1.5-1.7v-0.2l5.2-1.5v7.5c0.5-1.5,1.9-2.5,3.7-2.5
		c2.4,0,3.7,1.5,3.7,3.8v7.7c0,1,0.5,1.4,1.5,1.7v0.2h-6.3v-0.2c0.8-0.2,1.1-0.6,1.1-1.5v-7.6c0-1.5-0.6-2.3-1.8-2.3
		c-1,0-1.5,0.6-1.9,1.2v8.7c0,0.9,0.3,1.3,1.1,1.5v0.2h-6.3V103.9z"/>
	<path class="st7" d="M1017.9,103.9v0.2h-6.7v-0.2c1-0.2,1.5-0.7,1.5-1.7v-8c0-1.3-0.4-1.7-1.5-1.8v-0.2l5.2-1.5v11.4
		C1016.4,103.3,1016.9,103.7,1017.9,103.9z M1012.3,88c0-1.2,0.9-2.1,2.1-2.1s2.1,0.9,2.1,2.1s-0.9,2.1-2.1,2.1
		S1012.3,89.1,1012.3,88z"/>
</g>
<g class="st5">
	<path class="st7" d="M1028,101.1c-0.6,1.8-1.9,3.3-4.1,3.3c-2.1,0-3.1-1.3-3.1-3.3v-9.4h-1.5v-0.1c2-1.2,3.7-2.6,5.1-4.5h0.1v4.1
		h2.5v0.5h-2.5v8.9c0,1.2,0.5,1.9,1.4,1.9c1,0,1.6-0.6,1.9-1.5L1028,101.1z"/>
</g>
<g class="st5">
	<path class="st7" d="M1040.3,99.6c-0.6,3.6-2.9,4.9-5.1,4.9c-2.9,0-5.6-2.3-5.6-6.6c0-4.1,2.3-7.1,5.7-7.1c2.4,0,4.9,1.5,4.9,5.7
		h-7.7c0.3,3.2,1.9,5,4.3,5c1.4,0,2.5-0.4,3.2-2L1040.3,99.6z M1032.6,95.6v0.3h4.3c0-3.2-0.8-4.3-2.1-4.3
		C1033.4,91.5,1032.6,93.1,1032.6,95.6z"/>
</g>
<g class="st5">
	<path class="st7" d="M969.6,120.8h6.4c2.6,0,4.1,1.5,4.1,3.9c0,1.8-0.8,2.9-2.4,3.5v0.1c1.5,0.5,2,1.6,2.1,3.8
		c0.1,2.3,0.4,2.9,0.6,3.1v0.1h-1.4c-0.3-0.2-0.4-0.8-0.5-3.2c-0.1-2.5-1-3.2-3.1-3.2h-4.4v6.4h-1.3V120.8z M975.5,127.6
		c2.1,0,3.2-1,3.2-2.8c0-1.8-0.8-2.8-3-2.8h-4.8v5.6H975.5z"/>
</g>
<g class="st5">
	<path class="st7" d="M982.3,127.9c0-4.2,2.4-7.5,6.8-7.5c2.9,0,5.1,1.5,5.7,4.4h-1.4c-0.4-2.1-2.1-3.3-4.3-3.3
		c-3.7,0-5.4,2.8-5.4,6.3c0,3.5,1.8,6.3,5.2,6.3c3.3,0,4.7-2.3,4.7-4.8v-0.5H989v-1.2h5.9v7.4H994l-0.3-2.3h-0.1
		c-0.7,1.2-2.1,2.6-4.8,2.6C984.7,135.4,982.3,132.2,982.3,127.9z"/>
</g>
<g class="st5">
	<path class="st7" d="M998,120.8h6c1.3,0,2.3,0.4,3,1c0.7,0.6,1,1.5,1,2.6c0,1.6-0.7,2.6-2.2,3.1v0.1c1.6,0.5,2.8,1.6,2.8,3.5
		c0,1.2-0.4,2.1-1,2.8c-0.7,0.8-1.9,1.2-3.4,1.2H998V120.8z M1004,127.1c1.7,0,2.7-1,2.7-2.6c0-1.6-1-2.5-2.7-2.5h-4.6v5.1H1004z
		 M1004.2,133.9c1.1,0,1.9-0.3,2.4-0.8c0.5-0.5,0.7-1.1,0.7-2c0-1.8-1.3-2.9-3.2-2.9h-4.8v5.7H1004.2z"/>
</g>
<g class="st5">
	<path class="st7" d="M1011,127.2h1.5v1.7h-1.5V127.2z M1011,133.4h1.5v1.7h-1.5V133.4z"/>
</g>
<g class="st5">
	<path class="st7" d="M1023.1,128.9c1.9-1.1,3.2-1.8,3.2-3.8c0-1.8-1.2-2.9-3-2.9c-1,0-1.7,0.3-2.3,0.9c-0.5,0.6-0.8,1.4-0.9,2.7
		h-1.3c0-1.5,0.4-2.7,1.2-3.5c0.8-0.8,2-1.2,3.3-1.2c2.6,0,4.2,1.7,4.2,4c0,2.7-2,3.7-4,4.9c-1.6,0.9-3.3,2-3.6,3.9h7.4v1.2h-8.9
		C1018.5,131.6,1020.9,130.2,1023.1,128.9z"/>
</g>
<g class="st5">
	<path class="st7" d="M1035.3,131.6h-6.4v-1.2l6.6-9.2h1.1v9.3h2.1v1.1h-2.1v3.5h-1.3V131.6z M1035.3,130.5v-7.1h0l-5.1,7v0.1
		H1035.3z"/>
	<path class="st7" d="M1046.6,131.6h-6.4v-1.2l6.6-9.2h1.1v9.3h2.1v1.1h-2.1v3.5h-1.3V131.6z M1046.6,130.5v-7.1h0l-5.1,7v0.1
		H1046.6z"/>
	<path class="st7" d="M1060,128.9c1.9-1.1,3.1-1.8,3.1-3.8c0-1.8-1.2-2.9-3-2.9c-1,0-1.7,0.3-2.3,0.9c-0.5,0.6-0.8,1.4-0.9,2.7h-1.3
		c0-1.5,0.4-2.7,1.2-3.5c0.8-0.8,2-1.2,3.3-1.2c2.6,0,4.2,1.7,4.2,4c0,2.7-2,3.7-4,4.9c-1.6,0.9-3.3,2-3.6,3.9h7.4v1.2h-8.9
		C1055.4,131.6,1057.8,130.2,1060,128.9z"/>
</g>
<g class="st5">
	<path class="st7" d="M1066.6,130.9h1.3c0.1,2.2,1.5,3.4,3.6,3.4c2.1,0,3.3-1.1,3.3-3c0-1.8-1.2-2.9-3.4-2.9h-1v-1.1h0.9
		c1.9,0,3-1,3-2.5c0-1.7-1.2-2.6-2.8-2.6c-2,0-3.1,1.4-3.1,3.3h-1.3c0-2.5,1.6-4.4,4.4-4.4c2.3,0,4.1,1.4,4.1,3.7
		c0,1.6-0.8,2.5-2.1,3v0.1c1.7,0.6,2.6,1.8,2.6,3.6c0,2.5-1.9,4.1-4.6,4.1C1068.7,135.4,1066.6,133.7,1066.6,130.9z"/>
</g>
<g class="st5">
	<path class="st7" d="M1085.2,122.6L1085.2,122.6l-7.6,0v-1.2h9v1.1c-2.7,2.7-5.1,7.2-5.5,12.6h-1.4
		C1080,130.3,1082.3,125.3,1085.2,122.6z"/>
	<path class="st7" d="M1096.3,128.9c1.9-1.1,3.2-1.8,3.2-3.8c0-1.8-1.2-2.9-3-2.9c-1,0-1.7,0.3-2.3,0.9c-0.5,0.6-0.8,1.4-0.9,2.7
		h-1.3c0-1.5,0.4-2.7,1.2-3.5c0.8-0.8,2-1.2,3.3-1.2c2.6,0,4.2,1.7,4.2,4c0,2.7-2,3.7-4,4.9c-1.6,0.9-3.3,2-3.6,3.9h7.4v1.2h-8.9
		C1091.8,131.6,1094.2,130.2,1096.3,128.9z"/>
	<path class="st7" d="M1102.6,130.9h1.3c0.1,2.2,1.5,3.4,3.6,3.4c2.1,0,3.3-1.1,3.3-3c0-1.8-1.2-2.9-3.4-2.9h-1v-1.1h0.9
		c1.9,0,3-1,3-2.5c0-1.7-1.2-2.6-2.8-2.6c-2,0-3.1,1.4-3.1,3.3h-1.3c0-2.5,1.6-4.4,4.4-4.4c2.3,0,4.1,1.4,4.1,3.7
		c0,1.6-0.8,2.5-2.1,3v0.1c1.7,0.6,2.6,1.8,2.6,3.6c0,2.5-1.9,4.1-4.6,4.1C1104.7,135.4,1102.6,133.7,1102.6,130.9z"/>
	<path class="st7" d="M1116.9,124.8h-2.9v-0.9c2-0.1,3-0.6,3.2-2.6h1v13.8h-1.3V124.8z"/>
</g>
<g class="st5">
	<path class="st7" d="M969.6,144.8h1.3v6.2h8.1v-6.2h1.3v14.3h-1.3v-7h-8.1v7h-1.3V144.8z"/>
	<path class="st7" d="M983.8,144.8h9.8v1.2h-8.4v5.2h7.7v1.2h-7.7v5.6h8.6v1.2h-10V144.8z"/>
	<path class="st7" d="M1000.5,151.9l-4.7-7h1.5l3.9,6.1h0l3.9-6.1h1.5l-4.6,7l4.9,7.3h-1.6l-4.1-6.3h0l-4.1,6.3h-1.5L1000.5,151.9z"
		/>
	<path class="st7" d="M1008.8,151.3h1.5v1.7h-1.5V151.3z M1008.8,157.4h1.5v1.7h-1.5V157.4z"/>
	<path class="st7" d="M1018.6,155h-2l0.2-1.1h2l0.5-3.4h-2l0.2-1.1h2l0.6-4h1.1l-0.5,4h2.9l0.6-4h1.1l-0.6,4h2l-0.2,1.1h-2l-0.5,3.4
		h2l-0.2,1.1h-2l-0.6,4.2h-1.1l0.6-4.2h-2.9l-0.6,4.2h-1.1L1018.6,155z M1022.8,153.9l0.5-3.4h-2.9l-0.5,3.4H1022.8z"/>
	<path class="st7" d="M1029.3,144.8h9.4v1.2h-8v5.1h6.8v1.2h-6.8v6.9h-1.3V144.8z"/>
	<path class="st7" d="M1046.8,155.7h-6.4v-1.2l6.6-9.2h1.1v9.3h2.1v1.1h-2.1v3.5h-1.3V155.7z M1046.8,154.6v-7.1h0l-5.1,7v0.1
		H1046.8z"/>
	<path class="st7" d="M1052.8,144.8h9.8v1.2h-8.4v5.2h7.7v1.2h-7.7v5.6h8.6v1.2h-10V144.8z"/>
	<path class="st7" d="M1065.6,144.8h5.1c4.2,0,6.1,3,6.1,7.2s-2,7.1-6.3,7.1h-5V144.8z M1070.5,158c3.4,0,4.9-2.3,4.9-5.9
		s-1.3-6-4.8-6h-3.7v12H1070.5z"/>
	<path class="st7" d="M1079.6,144.8h9.8v1.2h-8.4v5.2h7.7v1.2h-7.7v5.6h8.6v1.2h-10V144.8z"/>
	<path class="st7" d="M1099.3,146.6L1099.3,146.6l-7.6,0v-1.2h9v1.1c-2.7,2.7-5.1,7.2-5.5,12.6h-1.4
		C1094.1,154.4,1096.4,149.4,1099.3,146.6z"/>
</g>
</svg>
