<svg id="Layer_1" data-name="Layer 1" xmlns="http://www.w3.org/2000/svg" viewBox="0 0 1163.27 244.74"><defs><style>.cls-1,.cls-2{fill:none;}.cls-2{stroke:#000;stroke-miterlimit:10;stroke-width:0.63px;}.cls-2,.cls-3,.cls-4,.cls-5{opacity:0.88;}.cls-3{fill:#ff4200;}.cls-4{fill:#2b2d36;}.cls-5{fill:#2d6beb;}</style></defs><rect class="cls-1" width="1163.27" height="244.43"/><path class="cls-2" d="M576.3,792.65A76.36,76.36,0,0,1,652,772.2a76.43,76.43,0,1,0-150.82-1.75,76.47,76.47,0,0,1,75.15,22.2Z" transform="translate(-116.73 -677.79)"/><path class="cls-2" d="M556,832.43a76.5,76.5,0,0,1-54.83-62,76.45,76.45,0,1,0,73.94,127.18,76.17,76.17,0,0,1-20.29-51.86A77.14,77.14,0,0,1,556,832.43Z" transform="translate(-116.73 -677.79)"/><path class="cls-3" d="M556,832.43a76.21,76.21,0,0,1,20.32-39.78,76.47,76.47,0,0,0-75.15-22.2A76.5,76.5,0,0,0,556,832.43Z" transform="translate(-116.73 -677.79)"/><path class="cls-4" d="M556,832.43a76.21,76.21,0,0,1,20.32-39.78,76.47,76.47,0,0,0-75.15-22.2A76.5,76.5,0,0,0,556,832.43Z" transform="translate(-116.73 -677.79)"/><path class="cls-2" d="M652,772.2a76.51,76.51,0,0,1-56.25,60.71,76.43,76.43,0,0,1-20.63,64.72A76.44,76.44,0,1,0,652,772.2Z" transform="translate(-116.73 -677.79)"/><path class="cls-3" d="M576.3,792.65a76.13,76.13,0,0,1,19.42,40.26A76.51,76.51,0,0,0,652,772.2a76.36,76.36,0,0,0-75.67,20.45Z" transform="translate(-116.73 -677.79)"/><path class="cls-5" d="M576.3,792.65a76.13,76.13,0,0,1,19.42,40.26A76.51,76.51,0,0,0,652,772.2a76.36,76.36,0,0,0-75.67,20.45Z" transform="translate(-116.73 -677.79)"/><path class="cls-4" d="M595.72,832.91a76.54,76.54,0,0,1-39.74-.48,77.14,77.14,0,0,0-1.18,13.34,76.17,76.17,0,0,0,20.29,51.86,76.43,76.43,0,0,0,20.63-64.72Z" transform="translate(-116.73 -677.79)"/><path class="cls-5" d="M595.72,832.91a76.54,76.54,0,0,1-39.74-.48,77.14,77.14,0,0,0-1.18,13.34,76.17,76.17,0,0,0,20.29,51.86,76.43,76.43,0,0,0,20.63-64.72Z" transform="translate(-116.73 -677.79)"/><path class="cls-3" d="M556,832.43a76.54,76.54,0,0,0,39.74.48,76.13,76.13,0,0,0-19.42-40.26A76.21,76.21,0,0,0,556,832.43Z" transform="translate(-116.73 -677.79)"/><path class="cls-4" d="M556,832.43a76.54,76.54,0,0,0,39.74.48,76.13,76.13,0,0,0-19.42-40.26A76.21,76.21,0,0,0,556,832.43Z" transform="translate(-116.73 -677.79)"/><path class="cls-5" d="M556,832.43a76.54,76.54,0,0,0,39.74.48,76.13,76.13,0,0,0-19.42-40.26A76.21,76.21,0,0,0,556,832.43Z" transform="translate(-116.73 -677.79)"/><circle class="cls-3" cx="133.01" cy="81.07" r="76.44"/><circle class="cls-4" cx="76.44" cy="166.72" r="76.44"/><circle class="cls-5" cx="187.53" cy="167.98" r="76.44"/></svg>