<?xml version="1.0" encoding="utf-8"?>
<!-- Generator: Adobe Illustrator 26.0.2, SVG Export Plug-In . SVG Version: 6.00 Build 0)  -->
<svg version="1.1" id="Layer_1" xmlns="http://www.w3.org/2000/svg" xmlns:xlink="http://www.w3.org/1999/xlink" x="0px" y="0px"
	 viewBox="0 0 1800 200" style="enable-background:new 0 0 1800 200;" xml:space="preserve">
<style type="text/css">
	.st0{enable-background:new    ;}
</style>
<g class="st0">
	<path d="M41.6,29.1h51.2v10.2H73.3v51.9H61.2V39.3H41.6V29.1z M103.1,29.1h17.4l13.5,47.3h0.2l13.7-47.3h17.6v62.1h-11.3V43.6h-0.4
		c0,0-2.6,9.8-5,17.6l-8.9,30h-11.5l-8.9-30c-2.2-7.2-4.8-17.6-4.8-17.6h-0.4v47.5h-11.1V29.1z"/>
	<path d="M188,29.1h64.7c16.3,0,28.9,5.4,36.9,15c6.5,7.6,10.4,17.8,10.4,29.5c0,28.4-16.3,45.6-50.1,45.6h-42.3v65.1H188V29.1z
		 M207.5,103.3h40.8c21.9,0,32.3-11.1,32.3-28.9c0-18.7-11.5-28.4-31.3-28.4h-41.9V103.3z"/>
	<path d="M306.7,128.3c0-32.6,20.8-59,54.3-59c33.6,0,54.1,26.5,54.1,59c0,32.6-20.4,59-54.1,59
		C327.5,187.4,306.7,160.9,306.7,128.3z M397,128.3c0-24.7-12.2-44.5-36-44.5s-36.3,19.8-36.3,44.5c0,24.7,12.4,44.3,36.3,44.3
		S397,153.1,397,128.3z"/>
	<path d="M450.2,90.8h0.4c6.7-10.9,18.5-20,33.4-20c3.3,0,5,0.4,7.2,1.3V89h-0.7c-2.6-0.9-4.3-1.1-7.8-1.1
		c-17.4,0-32.6,13-32.6,34.1v62.3h-17.6V72.1h17.6V90.8z"/>
	<path d="M499.9,72.1h16.3V36.7h17.6v35.4h21.7v14.3h-21.7v72.9c0,7.8,4.1,10.4,11.3,10.4c3.5,0,7.4-0.9,9.3-1.5h0.7v15.2
		c-4.1,0.9-8.9,1.5-14.1,1.5c-14.3,0-24.7-5.9-24.7-21.7V86.4h-16.3V72.1z"/>
	<path d="M563.3,72.1h15.4v-18c0-19.3,11.1-26.3,29.7-26.3c3.7,0,6.5,0.2,8.9,0.4v15c-3-0.2-3.9-0.2-5.6-0.2
		c-11.3,0-15.4,2.8-15.4,11.9v17.2h20.8v14.3h-20.8v97.9h-17.6V86.4h-15.4V72.1z"/>
	<path d="M624.7,128.3c0-32.6,20.8-59,54.3-59c33.6,0,54.1,26.5,54.1,59c0,32.6-20.4,59-54.1,59
		C645.6,187.4,624.7,160.9,624.7,128.3z M715,128.3c0-24.7-12.2-44.5-36-44.5s-36.3,19.8-36.3,44.5c0,24.7,12.4,44.3,36.3,44.3
		S715,153.1,715,128.3z"/>
	<path d="M751.3,29.1h17.6v155.2h-17.6V29.1z"/>
	<path d="M793.4,29.1H811v21.7h-17.6V29.1z M793.4,72.1H811v112.2h-17.6V72.1z"/>
	<path d="M828.6,128.3c0-32.6,20.8-59,54.3-59c33.6,0,54.1,26.5,54.1,59c0,32.6-20.4,59-54.1,59
		C849.4,187.4,828.6,160.9,828.6,128.3z M918.9,128.3c0-24.7-12.2-44.5-36-44.5s-36.3,19.8-36.3,44.5c0,24.7,12.4,44.3,36.3,44.3
		S918.9,153.1,918.9,128.3z"/>
</g>
</svg>
